<?xml version="1.0" encoding="utf-8"?>
<!-- Generator: Adobe Illustrator 19.0.1, SVG Export Plug-In . SVG Version: 6.00 Build 0)  -->
<svg version="1.1" id="Слой_1" xmlns="http://www.w3.org/2000/svg" xmlns:xlink="http://www.w3.org/1999/xlink" x="0px" y="0px"
	 viewBox="0 0 1500 1441.1765137" style="enable-background:new 0 0 1500 1441.1765137;" xml:space="preserve">
<style type="text/css">
	.st0{fill:#FFFFFF;}
</style>
<g>
	<g>
		<g>
			<path class="st0" d="M356.4967346,471.9091187c-36.4060669,0-42.9312134,16.5785217-42.9312134,16.5785217
				c-69.0874939-77.4887085-145.7362976,15.7389832-150.0769806,53.6574402
				c-4.64888,40.97052,4.4526367,84.0140381,45.9836273,84.0140381c36.4060822,0,52.2846985-47.6079712,55.5333252-57.4096069
				c3.2765198-9.8016357,7.0011902-37.3304443-14.4505005-44.331604
				c-14.8985138-4.8447876-24.3919678,7.5891113-28.8167572,15.6548462
				c-0.5601349,1.0077515-0.8120728,2.0723267-0.8120728,3.1080933c0,2.4367676,1.400238,4.7886963,3.7805634,5.8812866
				c2.8565369,1.3161621,6.1610565,0.3076782,8.0092926-2.2405396c6.4131775-8.9332886,18.6231842-15.7666016,20.6394348-4.2006836
				c2.3244476,13.5264893-13.0781403,38.2821655-18.0069885,45.7318726
				c-4.9288483,7.4770508-19.3511505,23.8039551-37.5541992,19.1547852
				c-18.2030334-4.6765747-27.0526123-35.0058594-21.9557343-59.2857056
				c5.1248932-24.2798462,29.9089661-67.6871033,69.5636902-75.6126404
				c39.6825867-7.9255371,50.8844604,23.8039856,50.8844604,23.8039856s-39.206543,195.6967163-58.8098297,195.6967163
				c-14.8144073,0-17.6429138-20.7796021-18.1189423-30.9449463c-0.0841064-1.5404053-0.7561798-2.8845825-1.7643127-3.8650513
				c-1.0361633-0.9801025-2.4363861-1.5960693-3.9767914-1.5960693c-3.0243835,0-5.6009369,2.3242188-5.740921,5.348938
				c-1.4841614,28.1725464,15.8227081,54.9729004,45.2276306,42.3707886
				c33.4656372-14.3380737,41.7829285-110.0582275,41.7829285-110.0582275
				c53.9089966,33.6056519,83.3139343-33.9416504,86.8145142-51.6968384
				C385.2015381,523.9140015,392.902832,471.9091187,356.4967346,471.9091187z M345.7709045,568.5252686
				c-13.0781555,26.12854-35.9579163,28.5365601-46.6837463,14.0864258l20.5274658-84.7982483
				c0,0,13.078125-19.603302,31.7572021-14.9267273C370.0230408,487.5359192,358.821167,542.3966675,345.7709045,568.5252686z"/>
		</g>
		<g>
			<path class="st0" d="M366.2983704,599.5546265c-22.2917786,0-29.0688477,21.3392334-32.2053833,39.1785278
				c-3.1365051,17.8666992,1.9323425,41.2508545,26.4364319,39.0103149
				c28.172699-2.5761719,27.6125793-47.383667,28.0885925-60.4342651
				C388.6180115,617.3092041,388.5901794,599.5546265,366.2983704,599.5546265z M362.4337158,668.4738159
				c-0.7561646,0.3363647-2.1564026,0.5042114-3.640564,0.5883179c-5.993042,0.2799683-11.1179504-4.6769409-10.7258606-10.6696167
				c0.0280457-0.0841064,0.0280457-0.1682129,0.0280457-0.2523193c0.7001038-8.4013672,3.5005798-50.7724609,19.6032715-49.708252
				C383.8013,609.4960938,370.8351135,664.6935425,362.4337158,668.4738159z"/>
		</g>
		<g>
			<path class="st0" d="M387.7583618,618.8809814c0,0,19.1467896-47.7886353,29.8819275-51.9893188
				c10.7351379-4.2007446,38.7398071-6.5526733,27.0711975,32.6629639c0,0,12.5792847-23.3782349,22.0521545-29.6574707
				c2.3353882-1.5480347,5.4621277-0.0965576,5.7320251,2.6922607c0.7195129,7.4352417,0.8918457,20.8971558-0.7129822,38.1762085
				c0,0,19.8366394-55.5426025,33.6055908-55.5426025c16.0039368,0,14.3937073,15.8978271,12.7203064,23.4662476
				c-0.5081177,2.2981567-2.5549927,3.9158325-4.9086304,3.9158325h-0.000061c-3.0193787,0-5.3340454-2.6334839-4.9936218-5.633606
				c0.605835-5.3394165,0.8538513-12.5175171-2.2345581-12.296875
				c-4.9008179,0.3500366-10.1517029,22.7537842-11.5519104,45.1575317
				c-1.400238,22.4037476,4.5507507,21.3535767,8.0513306,18.9031372
				c3.5005798-2.4503784,35.4440918-40.7453613,35.4440918-40.7453613v13.5512695c0,0-28.7929688,34.5691528-37.8945007,37.1826782
				s-19.2532043-2.9874268-19.6032715-28.1915894c0,0-15.7526245,40.9568481-22.4037476,45.1575317
				s1.0501709-56.1351929,1.0501709-56.1351929s-33.6056213,65.2366943-51.4585876,72.237854
				c-14.1943359,5.5664063-12.4562683-15.1998901-11.1477661-23.9450073
				c0.3202515-2.1404419,2.1595459-3.7095947,4.3237915-3.7095947l0,0c2.7340088,0,4.7705688,2.4720459,4.2991333,5.1650391
				c-0.8533325,4.8745117-1.353363,11.3786621,2.1747742,10.9376831
				c5.6009521-0.7001343,21.3535767-47.9580688,22.7538147-64.7608643s-1.7503052-24.5040894-8.0513611-17.8529663
				s-36.3849792,67.0453491-36.3849792,67.0453491L387.7583618,618.8809814z"/>
		</g>
		<g>
			<path class="st0" d="M602.237793,602.4949341l8.9333496-53.7131348c0.8122559-4.928833-2.9683228-9.4371948-7.980957-9.4371948
				c-1.87677,0-3.6126709,0.644043-4.9848633,1.7078857c-1.3722534,1.0925903-2.4087524,2.6326294-2.8565674,4.4249878
				l-3.6127319,14.4221191c0,0-8.8772583-16.4664307-29.4049072-15.5424194
				c-18.0067749,0.8399658-22.5999756,22.5996704-24.9799194,39.0386963
				c-0.616394,4.1726685-0.9243774,8.4014282-0.9243774,12.630188c0,3.7244873,0.8122559,7.3648682,2.3803101,10.6415405
				c1.5681152,3.2766724,3.9207153,6.1612549,6.9454346,8.2896118c6.6087646,4.6485596,17.0544434,6.7769165,32.4570313-3.2489624
				c0,0,0.9243774,9.6618042-1.1760254,12.4622803c-2.1003418,2.8004761-42.007019,39.5145874-51.5843506,58.3897095
				c-8.6256714,17.0550537-14.9267273,54.3291016,19.0148926,48.8960571
				c33.9697266-5.4047241,51.1365967-83.4818115,52.1727295-112.1585693l29.993103-27.2278442l-0.9522095-11.3065796
				L602.237793,602.4949341z M536.4268188,722.5509644c-18.203064,0.3360596-5.9089355-45.5075684,35.7340088-78.4130859
				C572.1608276,644.1378784,560.3709717,722.1031494,536.4268188,722.5509644z M580.5621948,594.2614136
				c-1.8483887,9.1295166-6.2449951,14.5065308-17.0550537,14.5065308c-14.1141357,0-13.6379395-41.8110962,3.6687622-51.7245483
				c4.0324707-2.3242798,9.3257446-1.5680542,12.0140991,2.2121582
				C582.4382935,563.8486938,584.7629395,573.5942383,580.5621948,594.2614136z"/>
		</g>
		<g>
			<path class="st0" d="M647.5120239,604.2312012c-10.2477417,0-14.1049805-15.4025879-5.7036133-21.9835815
				c8.4014282-6.5810547,30.0770264-23.1599121,29.4049072-42.9030151
				c-0.3640747-9.8577271-7.1970215-12.8824463-13.9185791-13.4703979
				c-10.0532227-0.840332-19.7711182,4.3688354-24.9519043,13.0218506
				c-15.0665283,25.2322388-10.6138916,75.0807495,13.0779419,75.0807495c28.4532471,0,34.4216309-23.8948364,34.4216309-23.8948364
				l-1.2918701-14.555542C678.5505371,575.5264282,663.6147461,604.2312012,647.5120239,604.2312012z M662.1955566,535.7038574
				c10.8381348,4.4246216-13.3021851,28.7047729-19.6032715,30.1050415
				C642.5922852,565.8088989,651.3300781,531.2788696,662.1955566,535.7038574z"/>
		</g>
		<g>
			<path class="st0" d="M689.3237915,533.3498535c7.2278442-8.7871704,18.5904541-13.4615479,29.7431641-11.2094727
				c7.4588623,1.5061646,14.9428711,5.9314575,16.8931885,17.2042236
				c2.0057983,11.5932007,1.3511963,18.1489258,0.1195068,21.8345947c-0.9284058,2.7781982-3.5401001,4.6296997-6.4692993,4.6296997
				l0,0c-3.727356,0-6.7647705-2.991272-6.8218384-6.7181396c0.7640381-7.0770874,0.9042358-13.7554932-0.2994385-19.5752563
				c-0.0765991-4.9876099-6.0637207-7.7511597-9.7122803-4.3496094c-0.0512695,0.0477905-0.1025391,0.0965576-0.1538696,0.1463013
				c-5.1342163,4.9749756-14.0023193,28.3122559-16.3360596,38.1138916s0.2098999,26.1376953,11.3068237,25.6709595
				c11.0969238-0.4667969,42.9891357-45.5924683,42.9891357-45.5924683l-3.0113525,20.885498
				c0,0-21.1795654,34.3778687-38.9158936,34.3778687C663.3227539,608.7679443,674.1022949,551.8554077,689.3237915,533.3498535z"/>
		</g>
		<g>
			<path class="st0" d="M969.546936,667.9138184c-3.0800781-3.8366089-8.5969238-4.5367432-12.5740967-1.6801758
				c-30.3285522,21.647522-78.692688,19.1831055-108.9098511,12.6858521
				c-32.5975342-7.0011597-52.3686523-14.9541016-52.3686523-14.9541016l58.8098145-35.9301758
				c66.2868652,38.7306519,89.6149902-0.4758911,91.4910889-9.3258057
				c1.8760986-8.8772583,5.125061-35.0058594-26.6044312-35.0058594c-31.7295532,0-59.2857056,20.0518188-59.2857056,20.0518188
				c-4.649231-2.8004761-11.7901611-38.3946533-12.826355-51.6688843
				c-1.0361328-13.3302002-4.9008179-38.5344238-21.7036133-38.5344238s-22.7398071,15.4025879-22.7398071,15.4025879
				c-3.5286255-9.8016357-11.565918-8.4851685-11.565918-8.4851685c-12.9661865,0-18.5671387,8.1491089-18.5671387,8.1491089
				c-0.8399048-4.28479-2.9122314-6.4412231-5.2088013-7.4213257c-4.508728-1.90448-9.661499,1.0361938-10.8938599,5.796814
				l-7.5614624,28.7328491l-4.8447876,34.4178467c-0.5599365,3.9207153,2.4927979,7.4213257,6.4412231,7.4213257h6.1889038
				c3.2766724,0,6.0491333-2.4083862,6.4692383-5.6570435c1.5404053-11.8178711,5.2368774-38.6462402,7.6732788-46.4876709
				c3.1365356-10.1376953,19.2672119-21.003479,20.3034058-10.1096191
				c0.840271,8.6813354-2.6322632,39.8505859-4.0605469,52.1727295c-0.3083496,2.7163696,1.7919922,5.0689697,4.536377,5.0689697
				h4.5371094c2.4083252,0,4.3685303-1.8487549,4.536377-4.2567749
				c2.5769043-35.1740112,9.8857422-61.0783691,17.0551147-61.0783691c7.4770508,0,7.2254028,1.4002686,10.0258789,26.6044922
				c2.8004761,25.2041626,18.678894,57.4376221,18.678894,57.4376221l-79.3374634,44.7794189
				c-79.8133545-52.2844849-141.5634155-31.7294922-141.5634155,7.9255371c0,39.6824341,43.071167,49.9599609,83.2020874,42.9587402
				c40.1583252-6.9731445,63.9622803-34.557312,63.9622803-34.557312s52.9852905,31.756897,107.5664063,33.6055908
				c43.6868896,1.4840088,73.960083-15.3745117,87.3184204-24.7563477c2.5481567-1.7923584,3.864624-4.6204834,3.864624-7.4770508
				C971.5915527,671.6947632,970.9194946,669.6220703,969.546936,667.9138184z M913.0897217,595.829834
				c19.9674072-2.1004028,25.2042236,10.501709,20.6394653,22.4037476c-4.5367432,11.9019775-38.142334,28.0046387-68.9475098,0
				C864.7816772,618.2335815,893.1223755,597.9301758,913.0897217,595.829834z M685.8877563,694.9104004
				c-24.4760742,0-52.4246826-9.5496826-43.2954712-36.4061279c6.8894043-20.3314209,80.4296875-16.1306763,109.4705811,8.0373535
				C752.0628662,666.541626,710.4199219,694.9104004,685.8877563,694.9104004z"/>
		</g>
		<g>
			<path class="st0" d="M925.4675903,409.1228333c-10.2774658,0-28.2843018,14.7581787-39.0664063,32.1773376
				c-22.5996094,36.4898376-30.7770996,80.177063-22.9075928,122.3522949
				c0.0840454,0.4197998,0.1678467,0.8682861,0.2519531,1.2600708c0.5322266,2.8845825,3.0523682,4.9569092,5.993042,4.9569092
				c3.444519,0,6.1889038-2.8004761,6.1328125-6.21698c-0.2519531-13.5825195-0.8121948-44.8916016-0.8121948-46.7116089
				c0-2.324646,8.4013672-12.6021118,22.4036865-12.1262512c9.1575928,0.3080139,10.5578613,9.1856384,10.4180298,15.2904358
				c-0.0560913,3.3046875-2.0723267,6.21698-5.0129395,7.6732788
				c-29.2647705,14.5346069-21.5914917,40.5787354-8.6813965,42.0911255
				c13.5264893,1.5964355,29.0688477-12.9101563,28.0046997-48.2800903
				c-1.064209-35.3979187-39.5426025-21.3114929-39.5426025-21.3114929
				c-0.3640747-4.2007141,3.6123657-14.5906677,3.6123657-14.5906677
				c35.9302368,3.2489624,57.6338501-26.7442627,62.0587769-33.6056213
				C951.5681763,447.0409241,966.298645,409.1228333,925.4675903,409.1228333z M895.2507935,557.3233643
				c-8.4014282-0.3640747-1.7643433-20.3034058,9.8016357-22.0396729
				C905.0524292,535.2836914,903.6521606,557.687439,895.2507935,557.3233643z M893.1223755,471.5450439
				c0,0,29.0689087-58.0816956,45.5356445-50.4084473C955.0967407,428.8659363,928.4923096,474.0094604,893.1223755,471.5450439z"/>
		</g>
		<g>
			<path class="st0" d="M870.3297729,474.924469c0,0-45.2213745-8.3829346-52.6893311-35.9208679
				c-7.4678955-27.5379333,8.9395752-84.3807068,69.1949463-91.715332
				c45.9071655-5.5880737,71.048584,25.9170532,102.9171753,53.9090271
				c20.7023926,18.1840515,41.3311768,35.0508118,82.2637939,38.7398071
				c94.5157471,8.5180664,99.3839111-91.6457214,48.074707-95.0992432
				c-36.4061279-2.4504089-54.9007568,39.1988831-41.5482178,58.4401855
				c11.197876,16.1364441,35.8530273,10.3193054,40.6258545-8.7331848c0.0739746-0.2957764,0.1442871-0.5964661,0.2104492-0.9021912
				c0.8703613-4.0227356,0.0183105-8.3387451-2.6850586-11.4422302c-2.9185791-3.3504944-7.7261963-6.2871094-14.454834-2.2052002
				c-1.3830566,0.8390808-2.5931396,1.943573-3.5395508,3.2362671c-1.5921631,2.1746216-1.9666748,5.1689148-0.4445801,7.3931274
				c0.9940186,1.4525452,2.5666504,2.3466187,5.3248291,2.2879333c5.4842529-0.1166687,4.9591064-5.9509888,4.9591064-5.9509888
				s5.767334,12.8369141-4.2092285,15.8368835c-2.7493896,0.8267517-5.7156982,0.5227051-8.3930664-0.5136719
				c-6.0620117-2.3464355-15.7553711-9.2218323-6.2425537-28.217041
				c13.4300537-26.8168945,42.1821289-20.6534424,48.6582031-0.5250854s-10.1517334,56.0093689-51.633667,56.0093689
				c0,0-42.2001953,5.2450562-88.4481201-39.5566101c-49.0926514-47.5574951-71.8786621-63.7106628-129.6383057-55.6593018
				c-61.6166992,8.5889893-75.2948608,61.2602234-75.2625732,90.1983948
				c0.0192871,17.2947693,13.9813232,59.4787292,73.7351074,60.5445251L870.3297729,474.924469z"/>
		</g>
		<g>
			<path class="st0" d="M957.8131104,546.317749c-10.2213745-0.5322876-6.9170532-24.7283936-6.9170532-24.7283936
				s33.2415771-21.6755676,40.9708862-41.9789734c4.5927734-12.1819458-1.7362671-16.9990234-7.5614624-18.9031372
				c-4.2287598-1.3722229-8.821228-1.2881165-13.1621094-0.196228
				c-34.3898315,8.5976257-35.5888672,55.8304749-35.5888672,55.8304749l-14.2935791,5.689209l-0.9714355,8.7427368
				l14.1678467-3.2190552c-0.3640747,19.9673462,8.7655029,37.1903076,28.8165894,28.5930176
				c19.6032715-8.4014282,35.0932617-49.1008301,35.0932617-49.1008301l-0.3773193-14.6488647
				C997.9898682,492.3977051,968.0629272,546.8215942,957.8131104,546.317749z M977.9763794,467.9326477
				c21.0875854,6.3010559-22.6553345,36.1818237-22.6553345,36.1818237S963.078064,463.4796753,977.9763794,467.9326477z"/>
		</g>
		<g>
			<path class="st0" d="M997.803894,492.9126282l2.0495605-5.6757507c1.5009766-4.1564941,5.446106-6.9263611,9.8653564-6.9263611
				l0,0c5.7928467,0,8.9135742,4.462616,8.9135742,10.2554626l-1.0501709,14.5986938l18.7280884,0.3500366l6.9587402-27.815155
				c0.8458252-3.5512085,4.0189209-6.057312,7.6694336-6.057312l0,0c5.2154541,0,9.0001221,4.9575806,7.5986328,9.9810791
				c-2.9251709,10.4842224-6.9920654,27.1636353-7.2762451,39.7307434c-0.0690918,3.0547485,3.1773682,5.2266846,5.9210205,3.881958
				c3.5444336-1.7371826,8.3580322-6.0167236,13.4342041-16.1862793l1.3137207,11.4474487
				c0,0-9.0150146,18.7072754-23.4396973,18.7072754c-11.2017822,0-12.6464844-18.1845093-12.8798828-24.8215942
				l-18.5531006-0.1166992l-3.9734497,25.1437378c-0.7402954,3.9963989-4.2261963,6.895813-8.2905884,6.895813l0,0
				c-4.8191528,0-8.65802-4.0321045-8.4214478-8.84552l1.432251-29.1450195V492.9126282z"/>
		</g>
		<g>
			<path class="st0" d="M1070.6160889,509.0497437c0,0,6.1259766-48.6925659,27.1295166-54.9936218
				c19.2075195-5.7622375,33.5845947,10.1390686,28.4068604,31.6408997
				c-0.8674316,3.6021729-4.0825195,6.1654053-7.7877197,6.1654053l0,0c-5.2476807,0-9.050293-4.9729919-7.7019043-10.0444641
				c1.4744873-5.5453186,2.8449707-11.790863,2.3103027-14.2262573c-1.0501709-4.7841187-6.3010254-6.0179749-11.5518799,4.0505371
				c-5.2509766,10.068512-15.5654297,41.4649963-7.2637939,51.1128845
				c9.7141113,11.2893677,54.3067627-60.3530273,54.3067627-60.3530273l0.4969482,15.4290771
				c0,0-20.5854492,46.2366333-45.0895996,54.6380615C1079.3675537,540.8706055,1070.6160889,528.3374023,1070.6160889,509.0497437z
				"/>
		</g>
		<g>
			<path class="st0" d="M1148.3291016,462.8075867l4.2854004-12.8562622
				c0.9946289-2.9840088,3.7871094-4.9967346,6.9326172-4.9967346l0,0c4.309082,0,7.6824951,3.7094116,7.2747803,7.9991455
				l-0.6398926,6.7308655c0,0,14.0023193-42.384613,32.2054443-42.384613c13.5993652,0,12.3494873,21.4923401,10.8474121,32.3634338
				c-0.4854736,3.5136719-3.4544678,6.1430054-7.0015869,6.1430054l0,0c-4.3475342,0-7.6496582-3.8867188-6.970459-8.1809082
				c1.0819092-6.8404846,2.1530762-15.5505981,0.6741943-15.9731445
				c-2.4504395-0.7001038-18.2030029,21.0035095-19.2531738,31.1552124c0,0,25.0875244-4.66745,30.2216797,19.1365356
				c5.1341553,23.8039551,6.067627,36.8728333,10.2684326,49.4749451
				c4.2006836,12.6021118,8.8206787,25.3883667,8.8206787,25.3883667l-18.4569092,8.7427368
				c0,0-15.1013184-54.8350525-17.4350586-71.5542908c-2.3337402-16.7192078-6.067627-23.9537659-13.5355225-21.3866577
				c-6.8248291,2.3460388-13.9421387,21.7468262-15.1171875,47.514679c-0.1893311,4.151001-3.5678711,7.444519-7.7231445,7.444519
				l0,0c-4.4494629,0-7.9827881-3.7425537-7.7271729-8.1846924l2.3294678-40.4734497V462.8075867z"/>
		</g>
		<g>
			<path class="st0" d="M1228.2159424,426.4014893c-3.9799805,0-7.4519043,2.6933594-8.4190674,6.5540466
				c-1.6000977,6.3868713-4.0864258,16.8153076-6.3569336,28.4518127
				c-3.7340088,19.1365356-1.3129883,34.0076599,15.6453857,34.4481506
				c17.9696045,0.4667358,26.8283691-17.6453552,26.8283691-17.6453552s-0.963501,8.6356201,1.4707031,16.7828979
				c2.8087158,9.4008789,12.6604004,14.8851318,22.1832275,12.5227356c3.9741211-0.9858704,9.131958-3.1770325,9.131958-4.8648987
				l-0.7770996-8.9370422c0,0-3.0705566,3.3994751-10.0717773,3.3994751s-5.1341553-17.7362976-3.5006104-26.6044312
				c0.9649658-5.2386169,4.3730469-18.213562,7.0010986-27.9568176c1.6574707-6.1448975-2.7873535-12.2416687-9.1445313-12.5480347
				l0,0c-4.1572266-0.2003479-7.9942627,2.1947021-9.6365967,6.0190735
				c-5.9389648,13.8302002-20.2186279,45.6016846-26.9597168,47.7879944
				c-8.6347656,2.8004761-5.8343506-13.5355835-3.7340088-21.2368774
				c1.2803955-4.6945801,3.4278564-17.1070862,4.9095459-26.0836487
				C1237.6590576,431.2006836,1233.5773926,426.4014893,1228.2159424,426.4014893L1228.2159424,426.4014893z"/>
		</g>
		<g>
			<path class="st0" d="M1365.9813232,504.1985779c-1.2320557-4.5647583-6.7208252-6.3010559-10.3334961-3.2766724
				c-8.2055664,6.8613586-21.8157959,16.5788879-34.8657227,18.3708801
				c-16.9429932,2.2965698-16.7191162-16.4103394-16.1307373-23.0197449
				c0.1397705-1.400238,0.8959961-2.6603088,2.1003418-3.3884583c9.1015625-5.7691345,49.1480713-32.3735657,38.7861328-50.6046448
				c-11.6777344-20.5549927-35.0058594-5.6009521-46.2077637,10.5858459s-11.6777344,41.1390686-11.6777344,41.1390686
				s-1.4002686,37.4142151,26.6044922,37.4142151c22.067627,0,42.0910645-14.5062256,49.5960693-20.6394653
				c1.5124512-1.2323608,2.3526611-3.0523987,2.3526611-4.928833
				C1366.2055664,505.2904663,1366.12146,504.7304993,1365.9813232,504.1985779z M1334.7844238,443.2043152
				c14.7025146,5.3766785-26.8287354,35.0058289-26.8287354,35.0058289S1320.0820313,437.8276367,1334.7844238,443.2043152z"/>
		</g>
		<g>
			<path class="st0" d="M1258.9475098,535.1158447c-17.8389893,3.8363037-33.3813477,20.5830688-33.3813477,20.5830688
				l-18.2030029,8.8499146c-6.9454346,3.3884277-94.2641602,92.8912964-124.6208496,96.6161499
				c-30.3292236,3.7521362-30.8051758-36.4061279-24.2524414-49.904541
				c6.5252686-13.5264893,36.9383545-22.2355957,34.5299072-4.2287598
				c-1.7362061,13.0780029-12.0981445,16.5228271-17.6149902,17.4188232
				c-2.0162354,0.3364258-3.4725342,2.0723267-3.4725342,4.088562c0,1.5404053,0.8122559,3.0527954,2.2124023,3.6968384
				c7.505127,3.3884277,21.8438721-0.644043,27.7524414-10.7260132c6.5252686-11.2019043,0.9243164-39.206543-23.3554688-37.8063354
				c-24.2524414,1.4002686-40.6068115,26.6044312-36.8546143,55.0576782
				c3.7248535,28.4805298,28.9290771,45.2833252,67.7995605,31.7568359
				c38.8425293-13.553833,109.2182617-91.1550293,109.2182617-91.1550293
				c45.8436279,27.6686401,64.0466309,14.366394,73.4842529-4.2006836
				C1301.6546631,556.62323,1283.1993408,529.9346924,1258.9475098,535.1158447z M1264.1844482,586.3641968
				c-25.2042236-1.4002075-35.6779785-16.8027954-35.6779785-16.8027954s19.3513184-27.6686401,40.6068115-25.5402222
				C1290.3406982,546.1495361,1289.3886719,587.7644653,1264.1844482,586.3641968z"/>
		</g>
		<g>
			<g>
				<path class="st0" d="M280.8104248,783.4620361c-4.0136414,0-7.4522095,2.8377686-8.1858215,6.7837524
					c-4.3514404,23.4057007-18.7460632,100.5093994-23.4782867,121.8043823
					c-5.6009369,25.2042236-12.6020966,79.1132202-40.606781,79.8133545
					c-28.0046844,0.7000732-43.4072571-33.6056519-39.2065582-67.911377
					c4.2007141-34.3057251,30.8051605-39.206543,39.9066772-32.9054565
					c9.1015167,6.3010254,11.2018738,25.2041626,2.8004608,37.8062744
					c-3.5617218,5.3425903-6.8717804,9.6156006-9.503418,12.7657471c-3.0498657,3.6506958-2.3685455,9.1102295,1.4501343,11.9469604
					h0.0000153c3.1566467,2.3449707,7.4941711,2.1361084,10.4586639-0.4475098
					c7.7227478-6.7304077,20.4136353-22.1565552,17.1978912-49.1193237
					c-4.550766-38.1563721-44.3246155-31.505249-63.9440308-10.1517334
					c-19.6194,21.3535767-23.5383301,71.7620239,0.9496307,100.4667969
					c24.4879608,28.704834,79.7971954,14.7024536,91.3491364-44.4573975c0,0,24.6217346-110.8485107,29.1106567-157.3040161
					c0.4717712-4.8824463-3.3930969-9.0904541-8.2983398-9.0904541H280.8104248z"/>
			</g>
			<g>
				<path class="st0" d="M179.5104828,782.2177124c7.4875793-7.9537964,18.027832-12.670166,28.9415436-12.2037964
					c10.239212,0.4376221,21.4410706,5.1633911,25.2917175,22.3162231
					c2.406662,10.7205811,1.8049927,21.680481-1.5806732,31.6404419
					c-17.9189453,52.7140503-94.3422852,43.503479-103.1439514-11.4727783
					c-1.0115814-6.3184814-1.0742874-13.335083,0.1738281-21.1011353
					c7.5012512-46.6744385,42.1647797-66.9308472,73.758606-68.4100952
					c6.3113708-0.2955322,21.4742126,0.7800293,27.5249786,2.5991211
					c16.489975,4.9574585,48.3164673,16.9673462,81.6803284,25.6709595c0,0,72.8121643,17.9696655,108.5181274-18.4364014
					c22.7788086-23.2254639,34.1600647-37.9024048,39.4153748-45.4854736
					c2.4909668-3.5943604,7.2054749-4.8617554,11.1867371-3.0523071l0,0
					c4.719696,2.1450195,6.6923218,7.7793579,4.331665,12.3949585
					c-7.7611084,15.1748657-28.4238281,46.8925171-72.9002686,67.388855
					c-70.9206238,32.6828003-154.9624023-21.444397-174.5656891-25.6451416
					c-19.6032715-4.2006836-71.8786774,4.434082-83.0805511,52.0420532
					c-11.2018585,47.6079712,29.8716583,65.8109741,53.6756439,48.074707
					c23.8039703-17.7363281,19.6032715-53.2089233,9.3348846-55.0758667
					c-8.3195038-1.5126343-19.7028961,4.0216064-25.461853,11.8862915
					c-1.9881439,2.7150879-5.8451996,3.1635742-8.2881622,0.8492432v-0.000061
					c-2.0796051-1.9700928-2.3143158-5.2000732-0.5172119-7.4309082
					C175.2645111,786.9555054,177.1985321,784.673645,179.5104828,782.2177124z"/>
			</g>
			<g>
				<path class="st0" d="M324.7837524,788.1294556c-5.1882935,0-9.6572266,3.6306152-10.6953125,8.7139893
					c-5.0688477,24.8217163-19.0325317,95.5075684-18.2676392,117.3070679
					c0.9334717,26.6044312,32.7782288,28.1154175,46.7666626,12.378479l3.6417542-19.8463745
					c0,0-14.0023499,18.2030029-21.9370117,18.2030029c-13.5355835,0-4.66745-42.007019,2.3337402-74.6791382
					c4.1886597-19.5471802,7.2078857-37.9248657,8.9576721-49.5357056
					c0.9957581-6.607605-4.1176147-12.5413208-10.7998352-12.5413208H324.7837524z"/>
			</g>
			<g>
				<path class="st0" d="M445.5151062,839.9381104l-15.7385864,10.8658447c0,0-0.3640747-18.2871704-24.8681946-17.8670044
					c-20.3872986,0.3360596-26.6044312,13.6663208-26.6044312,13.6663208l0.95224-4.0609131
					c1.4841614-6.3291016-3.3325806-12.4058838-9.8296814-12.4058838c-2.4083557,0-4.6488647,0.840271-6.4131775,2.2965698
					c-1.7362671,1.4282837-3.0243835,3.444519-3.5005798,5.796814l-35.7618713,175.925293
					c-1.4282532,6.9170532,3.8646545,13.4143066,10.9497681,13.4143066c2.6604614,0,5.1529236-0.9523926,7.1132813-2.5482178
					c1.9323425-1.5963745,3.3325806-3.8369141,3.864502-6.4691772l30.3010864-153.7738037
					c0.7281494-4.0889282,2.7165222-7.8691406,5.7130432-10.725647
					c5.4329224-5.1811523,14.8985291-12.4619751,24.2800293-11.3140259
					c14.3383789,1.7362671,6.6651306,21.3395386,4.9008179,23.8039551
					c-1.7643127,2.4644775-25.6802368,11.4261475-26.1564636,38.7307129
					c-0.5040588,29.0685425,48.9242859,9.2133179,43.6593933-41.3068848l14.7024536-11.0900879L445.5151062,839.9381104z
					 M395.4707642,908.5495605c-9.325592-3.7247925,12.9661865-28.7047729,12.9661865-28.7047729
					S405.3284607,912.4979858,395.4707642,908.5495605z"/>
			</g>
			<g>
				<path class="st0" d="M280.8031921,1005.4802246c2.8013,1.8945923,4.1448364,5.3016357,3.3860779,8.597229
					c-2.4770203,10.7589722-6.8985291,35.4022827-0.5038452,53.1653442
					c8.4013977,23.3371582,26.1376953,39.6732178,70.4784546,28.0046387s55.5426025-67.2111816,58.3430786-80.2800903
					c2.8004761-13.0688477,5.3234863-37.6538086-9.3348999-40.4317627
					c-9.5436401-1.8085938-17.6971436,5.6870117-21.1001892,8.1946411
					c-2.4862671,1.8320313-5.9641418,1.4388428-8.1479187-0.7449341l0,0
					c-2.7434387-2.7434082-2.4325256-7.2522583,0.6416321-9.6192017
					c6.6791077-5.1425171,18.9534912-12.4597168,33.8713684-11.5410767
					c22.7397766,1.4002075,35.8086243,25.6709595,29.2742004,58.8098145s-23.5418701,73.6923218-70.9451904,87.3978882
					c-97.6662903,28.2380371-105.2357788-51.7763672-104.8326111-61.0302734
					c0.4729004-10.8552246,2.033844-27.5784912,7.040802-37.5475464
					C271.1643677,1004.0940552,276.7609253,1002.7462769,280.8031921,1005.4802246L280.8031921,1005.4802246z"/>
			</g>
			<g>
				<path class="st0" d="M455.3428955,830.1364746c-5.6567078,0-10.4320984,4.1798096-11.1985474,9.7843018
					c-2.0384521,14.906189-4.5209961,39.2601929-4.6092834,44.3553467
					c-0.1172791,6.7678223,0.7431946,29.6410522,16.8458862,27.307312
					c14.1402283-2.0493164,30.3832092-31.1783447,34.1819763-38.3467407
					c0.1826172-0.3446655,0.7025452-0.2008667,0.677948,0.1883545c-0.3943176,6.2348022-0.640625,26.7940063,13.2147827,27.1898804
					c16.3360291,0.4667358,38.7397766-45.7409668,38.7397766-45.7409668l0.281189-16.9382935
					c0,0-18.9509277,37.0083008-25.0186157,37.4750366c-4.1751099,0.321167-2.1625977-21.2352905-0.5009155-34.7140503
					c0.6923828-5.616272-3.6815796-10.5601807-9.340332-10.5601807h-0.0000305
					c-3.5349121,0-6.7648315,1.9675293-8.3735962,5.1151733c-6.6751099,13.0603027-24.7572021,47.2747803-35.666687,56.749939
					c-1.4637756,1.2713013-3.7254333,0.0354614-3.5023499-1.8904419l5.5333862-47.7736816
					C467.1330872,835.7623291,461.9390259,830.1364746,455.3428955,830.1364746L455.3428955,830.1364746z"/>
			</g>
			<g>
				<path class="st0" d="M543.1954346,838.5379028l3.9384155-45.1132813
					c0.4171753-4.7787476,4.4182129-8.4456787,9.2151489-8.4456787l0,0c5.1087646,0,9.2501831,4.1414185,9.2501831,9.2501831
					v10.0030518c0,0,14.0023804-32.7558594,32.2053833-33.0057373c14.6276855-0.2007446,17.5007935,16.713501,16.6119385,29.3601074
					c-0.3255615,4.631958-4.2249146,8.1963501-8.8682861,8.1963501h-0.000061c-5.2669678,0-9.4115601-4.557373-8.8424072-9.7935181
					c0.6967163-6.4088135,1.0803223-13.8713379-0.6514893-15.4107056
					c-3.1505127-2.800415-26.6044312,22.7538452-29.7549438,34.6558228c0,0,28.0046997-7.3512573,26.6044312,11.9019775
					c-1.4002075,19.2532349-4.2006836,42.3571167,0.3500977,38.5064697
					c4.5507202-3.850647,15.7526245-28.704834,15.7526245-28.704834v19.0505981c0,0-5.5843506,27.404541-22.5484619,27.404541
					c-25.2042236,0-8.6067505-50.1307373-13.3757324-58.3851318c-3.6921387-6.390564-13.0839844-1.6055908-13.5507813,5.8623047
					c-0.3583374,5.7334595-3.0551147,38.3190918-4.2884521,53.1464233
					c-0.3459473,4.1585083-3.8209839,7.3459473-7.9938965,7.3459473l0,0c-4.6942749,0-8.3856201-4.0128174-7.9945068-8.6907959
					L543.1954346,838.5379028z"/>
			</g>
			<g>
				<path class="st0" d="M609.0064697,839.9381104c0,0,3.2672119-7.2875977,16.3360596-7.1443481
					c13.0688477,0.1431885,11.6685791,27.6811523,14.4690552,29.0813599s23.8040161-69.5449829,34.5391235-70.0117188
					s13.2438965,24.9708862,19.1365356,48.5414429c5.1141968,20.4567871,8.0299072,34.1490479,26.9331055,57.9530029
					l-21.5655518,9.4916382c0,0-27.1727905-51.3336792-29.4933472-80.1305542
					c-0.065918-0.8183594-1.2160034-0.914917-1.4161377-0.1187134c-3.6179199,14.394165-14.8225098,52.6538696-31.8676758,53.411438
					c-21.003479,0.9334717-16.0388184-22.6202393-19.7199707-24.1540527
					c-5.6008911-2.3337402-7.3511963,2.1311035-7.3511963,2.1311035V839.9381104z"/>
			</g>
			<g>
				<path class="st0" d="M800.1383667,968.0595093c42.007019,4.2007446,61.6103516-20.3033447,62.3104248-43.4072266
					c0.7001343-23.1038818-7.7012939-51.1085205-51.8086548-53.7127686
					c-44.1073608-2.6046143-91.0151978,26.4082031-91.0151978,26.4082031
					c-39.9066772,12.6021118-81.1294556,52.2564697-81.1294556,52.2564697
					c-46.7119751-45.899353-150.6092529-33.3533325-161.8952332,11.1461792
					c-11.2579346,44.4994507,25.9884338,73.1201172,66.5951843,66.8190918
					c40.6068115-6.3010254,100.8168945-55.3092041,100.8168945-55.3092041s58.8098145,42.007019,116.2474365,42.7070923
					c45.6082764,0.5562134,77.5010376-10.3406982,88.685791-14.8441772c2.6130981-1.052124,4.175415-3.72229,3.8276978-6.5177002
					l0,0c-0.4437256-3.5678711-3.8001709-6.0151367-7.3288574-5.3258667
					c-19.0032349,3.7120361-75.024292,13.6625977-105.5160522,8.4847412
					c-37.1062012-6.3010864-81.9136963-38.5064697-81.9136963-38.5064697
					c12.6021118-4.9008179,61.6102905-38.5905151,61.6102905-38.5905151S758.1313477,963.8588257,800.1383667,968.0595093z
					 M817.6412964,891.2709351c32.6812744,1.8760986,34.5580444,25.1201172,30.8051758,38.7579956
					c-3.1365356,11.4261475-47.6079712,46.5441284-109.6940918-18.2867432
					C738.7523804,911.7421875,784.960083,889.4221802,817.6412964,891.2709351z M543.1954346,1005.8658447
					c-30.8051147,9.1015015-48.6721191-4.9008179-51.8366699-19.6032715s0.559967-47.1320801,49.3722534-51.1085205
					c48.840332-3.9764404,80.5415039,22.067688,80.5415039,22.067688S574.0006104,996.7643433,543.1954346,1005.8658447z"/>
			</g>
			<g>
				<path class="st0" d="M804.5633545,780.6524048c-2.324585-15.4025269-11.6784058-26.9968872-29.6291504-26.12854
					c-16.71875,0.8122559-27.0803223,28.7047729-28.704834,48.0838013l-14.9266968,3.7248535v-23.1038818
					c0-5.5448608-4.5083618-10.0258789-10.0532227-10.0258789c-2.7724609,0-5.2652588,1.1206055-7.0852661,2.9406128
					c-1.8203735,1.7923584-2.9406738,4.3128662-2.9406738,7.0852661v65.586731c0,5.1531372,4.1726685,9.3258057,9.3258057,9.3258057
					c2.5762329,0,4.9008179-1.0361938,6.6087036-2.7443848c1.7086182-1.680603,2.7444458-4.0045166,2.7444458-6.5814209v-30.3566284
					l15.8510742-5.6009521c0,0,1.4002075,30.8051758,29.8807373,27.0803223
					C804.1148682,836.2132568,806.9152832,796.0549927,804.5633545,780.6524048z M773.3657837,829.6045532
					c-17.8947144,0-4.8447876-71.972229,9.3537598-61.7224121
					C795.9376831,777.4595337,783.5037842,829.6045532,773.3657837,829.6045532z"/>
			</g>
			<g>
				<path class="st0" d="M801.0550537,769.1203613c0,0,8.1848755-20.6641846,18.9199829-20.6641846
					s9.3348999,12.3901978,10.7351074,20.6641846c1.4002686,8.2739868,10.2684326-20.1974487,21.4702759-20.6641846
					c11.2019043-0.4667358,7.4678955,12.1157227,7.4678955,18.4265747c0,6.3109131-8.868103,57.1860352-1.4002075,53.4520874
					s18.203064-19.1365356,18.203064-19.1365356l4.434021,9.8016357c0,0-9.543457,22.4572144-31.4804688,20.1254883
					c-13.7780762-1.4645386-12.0386963-35.1984863-10.5709229-49.5682983
					c0.1199341-1.1741333-1.4119263-1.7382813-2.0736694-0.7609863c-2.2973633,3.3929443-6.081665,7.0999756-11.6508789,7.0999756
					c-7.6906738,0-10.0140381-10.2109375-10.6958618-15.3375854c-0.1340332-1.0076904-1.4327393-1.3358765-2.0469971-0.5258789
					l-7.611084,10.0357056L801.0550537,769.1203613z"/>
			</g>
			<g>
				<path class="st0" d="M904.4558105,812.6335449c-11.2018433,1.4002686-7.0011597-26.9685059-7.0011597-26.9685059
					c20.8633423-4.9008179,42.007019-47.9439697,24.5040894-56.541626
					c-17.5029297-8.5692749-32.9055176,9.2977295-39.5706177,25.3443604
					c-6.637085,16.074646-5.9369507,46.7396851-5.9369507,46.7396851
					c-0.2243042,12.6581421,9.8016357,24.0842896,25.5402222,24.0281982
					c19.2952881-0.0841064,38.8705444-32.9055176,38.8705444-32.9055176l0.7015991-21.7136841
					C941.5635376,770.6164551,915.6577148,811.2333374,904.4558105,812.6335449z M916.5820923,737.4967651
					c11.7057495,1.2884521-8.6256714,29.3768921-17.3911743,29.3768921
					C899.190918,766.8736572,904.9036255,736.2086792,916.5820923,737.4967651z"/>
			</g>
			<g>
				<path class="st0" d="M942.7084351,735.9230347l-3.6129761,66.9058838
					c-0.3082275,5.7076416,4.2368164,10.5047607,9.9528198,10.5047607l0,0c5.1471558,0,9.4477539-3.9191284,9.9244995-9.0441284
					l2.8926392-31.0958862l19.1365356-0.9335327c0,0-0.9334717,29.8716431,14.9358521,28.4714355
					c15.8692627-1.4002075,40.5332642-58.4805298,40.5332642-58.4805298l0.6500244-27.6338501
					c0,0-19.9464111,49.3582153-33.4058838,67.1176758c-1.1243286,1.4835815-3.6082764-0.0072021-3.536377-1.8673096
					l1.8740234-48.4569092c0.2237549-5.7853394-4.6287231-10.4818726-10.4036865-10.069397l0,0
					c-4.9833374,0.355957-8.8849487,4.432312-9.0223999,9.4264526l-0.8080444,29.3570557l-20.3033447,1.0502319
					l0.2516479-24.6403198c0.0541992-5.3046265-4.2310791-9.6338501-9.5360107-9.6338501l0,0
					C947.1640015,726.9008179,942.9816284,730.8633423,942.7084351,735.9230347z"/>
			</g>
			<g>
				<path class="st0" d="M1035.611084,729.1356201v-9.0341797c0-5.928833,4.8062744-10.7351074,10.7351074-10.7351074l0,0
					c5.928833,0,10.7351074,4.8062744,10.7351074,10.7351074v45.3245239c0,1.1348267,1.5031738,1.5361938,2.0688477,0.5524292
					l34.8422852-60.5952759c2.0697021-3.5994873,5.9052734-5.8184814,10.057373-5.8184814l0,0
					c6.1871338,0,11.2784424,4.8486328,11.5869141,11.0280762c1.1531982,23.1012573,5.4880371,76.6223755,16.8590088,88.5348511
					l-21.3469238,12.8955688c0,0-16.4815674-56.664978-14.0517578-82.8060913
					c0.0675049-0.725647-0.895874-1.019104-1.2181396-0.3654785c-6.7949219,13.7815552-31.1486816,61.0089111-45.7987061,61.0178223
					c-17.1529541,0.010376-14.4691162-47.5975952-14.4691162-47.5975952V729.1356201z"/>
			</g>
			<g>
				<path class="st0" d="M1366.980835,798.4069824c-3.9202881-1.3721924-8.177124,0.9523926-9.1291504,5.0129395
					c-5.9370117,25.4284668-32.7937012,102.8050537-195.2769775,102.8050537
					c-58.8098145,0-112.4945068-21.9552002-112.4945068-21.9552002
					c7.0010986-7.0012207,69.5357666-62.0588379,69.5357666-62.0588379
					c27.5561523,32.2053833,52.760376,25.2042236,52.760376,25.2042236
					c12.6021729-1.8760986,32.2054443-15.878418,31.2536621-34.0814819
					c-0.3083496-6.3571167-3.1647949-11.4818726-6.7215576-15.430603
					c-6.7768555-7.5611572-16.8864746-11.1738281-27.0241699-10.8378296
					c-27.7528076,0.9240723-37.8903809,10.8658447-37.8903809,10.8658447l-21.00354,13.3022461
					c-9.7175293,6.1608887-79.5891113,63.7106323-79.5891113,63.7106323s-30.8051147-27.0803223-52.7330322-33.6055908
					c-21.9278564-6.5253296-55.7850952,4.1726685-58.7817993,35.9021606
					c-3.0247192,31.756897,12.0982056,47.1875,48.9801636,47.1875s63.010498-27.7804565,63.010498-27.7804565
					c150.3009033,60.4343262,239.552124,28.704834,286.7119141-11.9019775
					c36.1260986-31.1411743,48.8964844-64.074707,52.8729248-77.7130127c0.196167-0.644043,0.2799072-1.3161011,0.2799072-1.960144
					C1371.7418213,802.1317749,1369.8934326,799.4154053,1366.980835,798.4069824z M1178.2015381,802.1317749
					c20.8353271-1.5964355,14.7025146,28.3407593-5.6009521,31.5053101
					c-20.3033447,3.1645508-35.7059326-20.3034058-35.7059326-20.3034058S1157.3662109,803.7282715,1178.2015381,802.1317749z
					 M934.085022,886.6217041c1.8760376-23.5797119,23.5797119-31.0567627,36.4060669-27.9766235
					c12.8536987,3.1088257,45.9834595,32.5137329,45.9834595,32.5137329
					C978.1923828,920.6758423,932.2362671,910.1740723,934.085022,886.6217041z"/>
			</g>
			<g>
				<path class="st0" d="M1326.6263428,597.3615723c-29.4328613,0-44.3873291,23.8600464-51.2486572,40.7186279
					c-4.4807129,11.0059814-6.440918,22.9359741-4.8447266,34.7261963
					c3.8088379,28.06073,23.6917725,35.1737061,33.3255615,36.9940796c0.420166,0.0841064,0.8399658,0.1121216,1.260498,0.1121216
					c2.604248,0,5.0125732-1.4562988,6.2449951-3.8369751c1.763916-3.444519,0.3917236-7.6452026-3.0247803-9.465271
					c-33.1014404-17.55896-18.0068359-48.5042725-10.4176025-66.3712769
					c8.0653076-18.8751221,34.6697998-25.8762817,47.6079102-13.6382446
					c12.9381104,12.2379761,18.2030029,49.708252,3.1364746,87.1785278
					c-15.0384521,37.4422607-58.081665,74.8845215-81.213501,74.8845215c-23.0759277,0-34.27771-15.0385132-40.6068115-29.7409668
					c-4.7037354-11.024353-3.7232666-59.2394409-2.9383545-82.6734619
					c0.2358398-7.0438232-5.4185791-12.878479-12.4663086-12.878479h-0.0001221
					c-3.5612793,0-6.9528809,1.5223389-9.3197021,4.1834106l-15.8823242,17.8562622
					c-13.2741699-16.1027222-32.5413818-8.0373535-40.6068115,4.5647583
					c-8.0653076,12.6021118-5.4331055,36.7141113,5.6009521,38.4783936
					c11.9300537,1.9324951,14.534668-1.90448,16.6350098-4.8728027c0.8239746-1.1755371,1.8376465-1.6657104,2.7652588-1.8273926
					c1.3493652-0.2351685,2.4869385,1.0065308,2.1352539,2.3303223
					c-2.0411377,7.6818237-9.5452881,34.5098877-15.3461914,36.7150879
					c-6.7496338,2.5488892-5.1251221-10.9776001-8.6257324-20.0791626
					c-3.5006104-9.1015015-11.9019775-3.7247925-11.9019775-3.7247925
					c-22.4036865,11.0620117,2.324585,45.2559814,22.8796387,39.6550293
					c18.5113525-5.0409546,29.1533203-62.4505615,31.057373-73.7084961
					c0.1962891-1.2600708,0.7001953-2.4644165,1.4283447-3.5286255l9.017334-13.0499268
					c0.8122559-1.1486206,2.604248-0.7001343,2.7164307,0.7001343c0.5880127,7.4769897,1.9602051,26.1278687,3.9768066,64.522522
					c2.7724609,52.9008789,65.2226563,60.0702515,109.0783691,26.9404907
					c43.8831787-33.1297607,52.9846191-90.3150635,52.9846191-90.3150635
					C1372.0499268,648.1060791,1372.1340332,597.3615723,1326.6263428,597.3615723z M1172.3206787,700.2507935
					c-1.0922852,2.1563721-2.6046143,4.1169434-4.5648193,5.4891357c-1.6245117,1.1479492-3.7248535,2.0723267-6.1328125,1.8760986
					c-5.6009521-0.4758911-3.7248535-30.8051758,9.5773926-29.6292114
					C1182.038208,678.93927,1175.2329102,694.4819946,1172.3206787,700.2507935z"/>
			</g>
		</g>
		<g>
			<path class="st0" d="M742.7288208,399.3269043c-4.2007446-51.108551-70.711853-69.5358582-70.711853-69.5358582
				c29.2927856-56.9891052-27.0802612-97.0919952-27.0802612-97.0919952
				c32.793335-66.3989868-11.4261475-88.1586761-31.5613403-94.403656
				c-0.7001343-0.2242584-1.4002686-0.3083649-2.0723267-0.3083649c-3.7248535,0-6.9731445,2.9686737-6.9731445,6.9451141
				c0,2.9966888,1.9602051,5.6289673,4.8167114,6.5813751c53.2649536,17.6430817,24.7280273,72.4480896,24.7280273,72.4480896
				c-49.3722534-30.469101-101.1809082-9.8016357-112.3828125,2.0723267
				c-11.2018738,11.9300079-22.0396729,59.1738892,36.7701416,59.1738892c58.8098755,0,78.0490723-39.906662,78.0490723-39.906662
				c30.1050415,20.3033905,13.0779419,77.7129974,13.0779419,77.7129974
				c-120.6436768-23.1038818-165.0033569,17.5028992-165.7034607,42.007019
				c-0.7001343,24.5040894,37.1061707,53.9089966,103.6173401,46.2077026s77.3768921-61.6102905,77.3768921-61.6102905
				c19.9954224,8.0093079,34.9217529,18.4273071,42.7071533,27.3886719
				c11.145813,12.8260193,14.6183472,30.3009033,10.081604,46.6555481
				c-12.0701904,43.4072571-61.6663208,72.5044861-142.5435181,70.7398376
				c-72.7841492-1.5680847-125.8812561-27.8084412-145.148468-38.8701782
				c-4.7328186-2.7167053-10.7258606-1.7085876-14.3103638,2.40802c-4.8728027,5.5171814-3.3886414,14.1425171,3.0804443,17.6430969
				c13.8903809,7.5050659,41.9509583,19.5472107,94.3195496,31.5613403
				c85.4143066,19.603241,145.9326782-5.9369812,172.9569702-19.1554565
				C713.2678223,474.6034851,746.9295044,450.4354248,742.7288208,399.3269043z M566.5235596,274.2302246
				c-39.6550293,6.0767822-59.2583313-34.5299988-17.2512817-48.0564728
				c42.007019-13.553833,76.5369873,12.4622803,76.5369873,12.4622803S606.2059937,268.1807556,566.5235596,274.2302246z
				 M581.7019043,388.8251343c-39.206543,9.8016357-82.6138306-4.0044556-82.6138306-26.0725098
				c0-22.0673523,63.0105591-36.2378845,142.1237793-26.1002197
				C641.211853,336.6524048,620.9084473,379.0234985,581.7019043,388.8251343z"/>
		</g>
		<g>
			<path class="st0" d="M249.9060974,399.7337646l156.8587036,11.7591248
				c3.2809753,0.2459717,5.8175354,2.9797668,5.8175354,6.2699585l0,0c0,3.6546631-3.1051636,6.5393066-6.749939,6.2705383
				l-156.9008331-11.5695496c-3.8239288-0.2819824-6.5072327-3.8914795-5.6754608-7.634491l0.0421295-0.1895752
				C243.9760132,401.5897827,246.7904816,399.5001831,249.9060974,399.7337646z"/>
		</g>
		<g>
			<polygon class="st0" points="375.3649902,357.4582825 368.2158813,343.4120483 352.4674988,342.7834778 363.6170654,331.6437378 
				359.3483582,316.4718933 373.3882751,323.6333618 386.4984741,314.8852539 384.026062,330.4510193 396.3972778,340.216217 
				380.8293152,342.6749268 			"/>
		</g>
		<g>
			<polygon class="st0" points="565.2927856,165.5558777 563.4151611,149.907196 548.8453979,143.8964844 563.1479492,137.2750549 
				564.3621826,121.5609818 575.0792847,133.1173859 590.3994751,129.416275 582.720459,143.1799622 590.9746094,156.6066284 
				575.5115967,153.5566406 			"/>
		</g>
		<g>
			<polygon class="st0" points="805.7513428,225.7992401 802.3004761,210.4207458 787.1974487,205.9145966 800.756897,197.8804169 
				800.3754272,182.124115 812.2064819,192.5372009 827.0737305,187.3054352 820.8262939,201.7752686 830.3962402,214.2981415 
				814.7040405,212.8278961 			"/>
		</g>
		<g>
			<polygon class="st0" points="878.211792,280.0214233 875.6520996,264.4697266 860.8336182,259.1014709 874.8331299,251.8613281 
				875.3594971,236.1092072 886.5713501,247.1862335 901.71521,242.8191528 894.6449585,256.9052734 903.4780273,269.9584045 
				887.8964844,267.5870667 			"/>
		</g>
		<g>
			<path class="st0" d="M365.4508972,250.4600677l119.2286682,45.5883636
				c2.5305481,0.9675903,3.7750854,3.822937,2.7612915,6.3353577l-0.3864441,0.9577026
				c-0.9935608,2.4622803-3.7845459,3.6653442-6.2568665,2.6970215l-118.8422241-46.5460815
				c-2.3067627-0.9034729-3.5596619-3.4022827-2.9037476-5.791275l0,0
				C359.8088989,250.9429016,362.7792358,249.4385223,365.4508972,250.4600677z"/>
		</g>
		<g>
			<path class="st0" d="M303.4263,315.5797424l39.8709717,9.4245911c2.5483398,0.6023865,3.9923096,3.3017273,3.078949,5.7558594
				l-0.1621704,0.4357605c-0.772522,2.0757751-2.9802856,3.2407837-5.1298523,2.7070313l-39.7088013-9.8603821
				c-2.9291992-0.727356-4.2478027-4.1419983-2.5677185-6.6493225l0,0
				C299.8184509,315.8848267,301.6592102,315.1620483,303.4263,315.5797424z"/>
		</g>
		<g>
			<path class="st0" d="M413.6453247,342.6797485l44.9533997,10.0897827
				c3.1347351,0.7035828,5.0750427,3.8505249,4.2958374,6.9673157l-0.114502,0.4580383
				c-0.7585144,3.0340881-3.8135376,4.8961792-6.8579102,4.1800232l-44.8389282-10.547821
				c-3.5735779-0.8406372-5.440918-4.7826538-3.8276672-8.0803223l0,0
				C408.4189148,343.3687439,411.0622559,342.0999756,413.6453247,342.6797485z"/>
		</g>
		<g>
			<path class="st0" d="M774.4119873,238.8643036l-42.527832,37.1651154
				c-2.9655762,2.5916443-7.4834595,2.232666-10.0026245-0.7947083l-0.3702393-0.4449158
				c-2.4522705-2.947052-2.0825195-7.3174133,0.8300781-9.8105469l42.8980713-36.7202301
				c3.4188843-2.9265442,8.6704712-1.9197693,10.7647095,2.0636902l0,0
				C777.5143433,233.1952515,776.8556519,236.728775,774.4119873,238.8643036z"/>
		</g>
		<g>
			<path class="st0" d="M450.3536377,196.892395l33.0073242,32.142334c2.3016968,2.2413788,2.3060608,5.9384003,0.0096741,8.1852112
				l-0.3374634,0.3301849c-2.2354431,2.1871948-5.8132019,2.1730957-8.0313416-0.0316467l-32.6698914-32.4725189
				c-2.6037292-2.5880127-2.1294861-6.9240875,0.9721375-8.8880768h0.0000305
				C445.5407104,194.7416229,448.4570007,195.0454712,450.3536377,196.892395z"/>
		</g>
		<g>
			<path class="st0" d="M509.0370483,150.3323517l22.7269287,40.0761719
				c1.5848389,2.7946167,0.557373,6.3460083-2.2747803,7.8627625l-0.4161987,0.2229004
				c-2.756958,1.4765167-6.1886597,0.4646149-7.7034912-2.2715149l-22.31073-40.2990875
				c-1.7781372-3.2117767-0.1127625-7.2432556,3.4136963-8.2637329h0.0000305
				C505.0154724,146.9239655,507.7311401,148.029541,509.0370483,150.3323517z"/>
		</g>
		<g>
			<path class="st0" d="M705.0632935,116.8036957l-29.2268677,35.6146393
				c-2.0380859,2.4835052-5.7214355,2.8014374-8.1549072,0.7038879l-0.357605-0.3082428
				c-2.3689575-2.0418854-2.6583252-5.6079559-0.6496582-8.0050964l29.5844727-35.3063965
				c2.3578491-2.8138733,6.7185059-2.7090912,8.9385376,0.2147675v0.0000076
				C706.7980957,111.8257065,706.7426758,114.7572556,705.0632935,116.8036957z"/>
		</g>
		<g>
			<path class="st0" d="M1196.6635742,284.0976257l-45.8122559,31.7059631
				c-3.1947021,2.2109375-7.0933838,1.6661987-8.6317139-1.2060547l-0.2260742-0.4220886
				c-1.4975586-2.796051-0.1894531-6.7485657,2.9362793-8.8725891l46.0384521-31.2838745
				c3.6691895-2.4932556,8.0684814-1.3244934,9.0177002,2.395752v0.0000305
				C1200.6704102,279.0975037,1199.2960205,282.2757874,1196.6635742,284.0976257z"/>
		</g>
		<g>
			<path class="st0" d="M1240.0708008,328.5624084l-45.8122559,31.7059631
				c-3.1945801,2.2109375-7.0932617,1.6661987-8.6317139-1.2060547l-0.2260742-0.4220886
				c-1.4975586-2.796051-0.1894531-6.7485657,2.9364014-8.8725891l46.0383301-31.2838745
				c3.6691895-2.4932861,8.0684814-1.3244934,9.0177002,2.395752v0.0000305
				C1244.0776367,323.5622864,1242.7032471,326.7405701,1240.0708008,328.5624084z"/>
		</g>
		<g>
			<path class="st0" d="M1285.4256592,373.5739441l-34.4163818,23.8189697
				c-2.3999023,1.6609802-5.3287354,1.2517395-6.4844971-0.9060364l-0.1697998-0.3170776
				c-1.125-2.1005249-0.142334-5.0698242,2.2059326-6.6654968l34.5860596-23.5018921
				c2.7564697-1.8730774,6.0615234-0.9950256,6.7745361,1.7998047l0,0
				C1288.4356689,369.817627,1287.4031982,372.2052917,1285.4256592,373.5739441z"/>
		</g>
		<g>
			<path class="st0" d="M695.6713867,195.1968536l74.2315674-82.17099c2.7770386-3.074028,7.5219727-3.3100891,10.5903931-0.5268784
				l1.0930786,0.9915085c3.088562,2.8014908,3.2946777,7.5859146,0.4584351,10.6426086l-75.3247681,81.1795044
				c-2.7557983,2.9700317-7.3738403,3.2102966-10.4229736,0.5422668l0,0
				C693.1489258,203.100235,692.8671875,198.3009644,695.6713867,195.1968536z"/>
		</g>
		<g>
			<path class="st0" d="M846.710022,172.155838l60.1225586-41.4992218c2.9971313-2.0687561,7.0846558-1.4617462,9.3512573,1.3887177
				l0.1036377,0.1303101c2.49823,3.1416779,1.8095703,7.7425842-1.4989014,10.0151978l-60.2261963,41.3688965
				c-2.9200439,2.0057831-6.8832397,1.48349-9.18396-1.2103271v-0.0000153
				C842.7130127,179.2285614,843.3323364,174.4872589,846.710022,172.155838z"/>
		</g>
		<g>
			<path class="st0" d="M917.2839355,230.3346863l97.4007568-69.6165314
				c2.8236084-2.0181427,6.7374268-1.4435577,8.8618164,1.3010101l0.0222168,0.0287018
				c2.2425537,2.8973389,1.6281738,7.0780182-1.3532104,9.2075958l-97.4230347,69.5878448
				c-2.7738037,1.9813232-6.6099243,1.4654388-8.7618408-1.1782837v-0.0000153
				C913.678833,236.7756348,914.2530518,232.5010223,917.2839355,230.3346863z"/>
		</g>
		<g>
			<path class="st0" d="M771.5806274,319.07901l63.3111572-48.9489441
				c3.2352905-2.5013428,7.8846436-1.9129028,10.3947144,1.3156128l0.3150024,0.4051514
				c2.5310669,3.2555542,1.9215698,7.9504395-1.3569336,10.4517822l-63.6261597,48.5437927
				c-3.0286865,2.31073-7.3152466,1.9520264-9.9177856-0.8299866l0,0
				C767.7137451,326.8235779,768.1217041,321.7532654,771.5806274,319.07901z"/>
		</g>
		<g>
			<path class="st0" d="M975.8092651,337.5949097c-2.71521-2.7432556-2.3334961-7.2635498,0.8052368-9.5098877
				c16.4052734-11.7408752,62.3331299-44.5601196,83.9674072-59.5049133
				c21.6315918-14.9428864,63.0054932-42.7297668,77.7169189-52.5954895
				c2.9399414-1.9715881,6.9091797-1.1080933,8.7884521,1.8916626v0.0000153
				c1.7652588,2.8176727,1.0367432,6.5147552-1.6760254,8.4373474
				c-24.5384521,17.3910828-135.3179932,95.9698334-159.1984863,114.0773773
				c-2.5067139,1.9007568-6.0149536,1.6376953-8.2279663-0.5981445L975.8092651,337.5949097z"/>
		</g>
		<path class="st0" d="M672.5401001,1262.1750488h-7.7807007c-16.0447998-24.1120605-48.8829346-18.4047852-66.1855469-11.1379395
			c-6.2861328-1.279541-18.3393555-1.0427246-28.8875732,3.3377686
			c-10.9227295,4.5374756-18.2333984,12.6223145-21.1408691,23.3800049
			c-4.2449951,15.7073975-2.0285645,30.7908936,6.0812378,41.3846436
			c7.197998,9.4030762,18.5465088,14.5804443,31.9555054,14.5804443c21.677002,0,31.8746338-9.3643799,36.0467529-14.994751
			c16.2717285,2.1525879,31.6193848,0.6966553,37.3895264-0.0162354c0.4765625,0.1260986,0.9677734,0.2142334,1.4838867,0.2142334
			h11.0377808c8.4592896,0,15.3407593-6.8803711,15.3407593-15.338501v-26.0688477
			C687.8808594,1269.0576172,680.9993896,1262.1750488,672.5401001,1262.1750488z M625.526123,1307.3391113v-15.3795166
			c0-3.2193604-2.6091919-5.8284912-5.8284912-5.8284912c-3.2193604,0-5.8285522,2.6091309-5.8285522,5.8284912v18.9904785
			c-1.7109375,2.7617188-8.444458,11.112793-27.2869263,11.112793c-9.836792,0-17.6859131-3.4606934-22.6993408-10.0085449
			c-5.8865356-7.6887207-7.3743896-19.081543-4.083374-31.2576904c1.7109985-6.331665,5.4335327-10.9876709,11.3826904-14.2342529
			c5.0886841-2.7785645,10.8151855-3.9559326,15.5801392-4.362915c-2.9688721,5.050415-4.5827026,11.3300781-2.1404419,18.1121826
			c2.0126953,5.5917969,6.3624268,9.109375,12.2478638,9.90625c0.8093872,0.1092529,1.6426392,0.1616211,2.489624,0.1616211
			c7.7774048,0,16.7728882-4.3713379,19.7679443-8.6175537c1.4787598-1.6779785,7.6339722-3.2830811,9.5532837-2.5430908
			c2.006958,2.317749,5.4938354,2.6956787,7.9572754,0.8013916c2.5511475-1.9625244,3.0281372-5.6213379,1.0655518-8.173584
			c-1.6074219-2.0922852-4.7960205-4.6195068-10.8817749-4.430542c-5.8228149,0.1206055-13.8187866,2.8117676-17.0916138,7.4586182
			c-1.3103027,1.4798584-7.5861816,4.5307617-11.6171875,3.7384033c-1.3421631-0.2572021-2.0252075-0.8674316-2.5238037-2.2493896
			c-2.3397827-6.4990234,4.630249-12.6541748,6.4297485-14.1074219c4.8036499-2.0302734,39.50177-15.6856689,53.6550903,7.3204346
			v37.878418C649.3387451,1308.0767822,637.7022095,1308.7894287,625.526123,1307.3391113z M676.223877,1303.5847168
			c0,2.0308838-1.6529541,3.6815186-3.6837769,3.6815186h-5.2092285v-33.4342041h5.2092285
			c2.0308228,0,3.6837769,1.6529541,3.6837769,3.6838379V1303.5847168z"/>
		<g>
			<path class="st0" d="M759.5760498,1309.6431885c-2.3860474,0-5.4619141-1.1520996-7.3937988-6.2247314
				c-0.0899048-0.2366943-0.1821289-0.482666-0.2857056-0.7261963c-5.6634521-13.3691406,0.899292-24.7597656,6.6914063-34.8094482
				c5.4755859-9.5031738,10.6483765-18.4804688,7.8889771-29.770874c-0.7809448-3.2033691-5.0202637-4.0799561-6.2792969-3.9001465
				c-8.9727173,1.1862793-12.0623169,16.3016357-12.0919189,16.4542236
				c-0.5942383,3.1578369-3.6223145,5.2637939-6.7904053,4.6605225c-3.1589966-0.5852051-5.2502441-3.6064453-4.6741943-6.7666016
				c0.175293-0.9630127,4.4977417-23.5871582,22.0288086-25.9049072c6.2565308-0.8197021,16.6749878,2.631958,19.1315918,12.6883545
				c3.8682251,15.8303223-3.0280762,27.7991943-9.1138916,38.3588867
				c-5.5552979,9.6420898-8.927124,16.0943604-6.5115356,23.2479248l28.980896-9.4257813
				c3.0531616-0.9880371,6.3499146,0.6784668,7.3471069,3.7407227c0.9949341,3.0622559-0.6807251,6.3499756-3.7407227,7.347168
				l-32.5531006,10.5845947C761.5818481,1309.4110107,760.6483765,1309.6431885,759.5760498,1309.6431885z"/>
		</g>
		<g>
			<path class="st0" d="M893.3175049,1286.5227051c-2.3837891,0-5.4573975-1.1542969-7.3926392-6.2269287
				c-0.0888062-0.2368164-0.1821289-0.482666-0.2846069-0.7263184c-5.6645508-13.3691406,0.899292-24.7597656,6.6914063-34.8093262
				c5.4755859-9.5032959,10.6483765-18.4804688,7.8889771-29.7709961c-0.7809448-3.2033691-5.0202637-4.0799561-6.2792969-3.9000244
				c-8.9135132,1.177002-12.0599976,16.2901611-12.0895996,16.4404297
				c-0.5783081,3.1693115-3.6246338,5.2775879-6.7779541,4.6878662c-3.1669312-0.5760498-5.2661133-3.6109619-4.6878052-6.7779541
				c0.175293-0.9630127,4.4988403-23.5894775,22.0276489-25.9072266c6.2678833-0.8150635,16.6749878,2.631958,19.1315918,12.6883545
				c3.8682251,15.8303223-3.0280762,27.7993164-9.1138916,38.3588867
				c-5.5552979,9.6420898-8.927124,16.0966797-6.5115356,23.2480469l28.980896-9.4257813
				c3.0554199-0.9836426,6.3499146,0.6784668,7.3471069,3.7407227c0.9949341,3.0621338-0.6807251,6.3498535-3.7407227,7.3470459
				l-32.5531006,10.5847168C895.3256226,1286.288208,894.3921509,1286.5227051,893.3175049,1286.5227051z"/>
		</g>
		<g>
			<path class="st0" d="M829.6501465,1295.5158691c-1.206665,0-2.4292603-0.0955811-3.6587524-0.2891846
				c-7.2468872-1.1451416-13.4852295-5.3913574-18.0455933-12.2785645
				c-7.4631958-11.2790527-9.8469849-29.3929443-5.9286499-45.072998
				c2.1947632-8.7700195,6.6777344-15.9487305,13.3258667-21.3309326c4.9246216-3.984375,11.3428345-5.819458,17.6266479-5.0407715
				c6.2633667,0.7810059,11.7799683,3.9775391,15.5366211,9.0023193l0,0
				c4.2188721,5.6395264,7.0875854,12.8682861,8.5287476,21.4880371
				c3.0827637,18.4304199-1.1361084,36.6103516-10.7485962,46.3116455
				C841.6099854,1293.0228271,835.8065186,1295.5158691,829.6501465,1295.5158691z M830.0463257,1222.9782715
				c-2.6751709,0-5.2456665,0.9084473-7.3676147,2.6274414c-4.6400146,3.7543945-7.786499,8.8338623-9.350647,15.097168
				c-3.1259766,12.501709-1.3410034,27.2277832,4.3395386,35.8111572c2.7434692,4.1459961,6.1563721,6.5684814,10.140686,7.1968994
				c3.8704834,0.6192627,7.1900024-0.5738525,10.1975708-3.6109619c6.9509888-7.0147705,9.9790649-21.5563965,7.5315552-36.1845703
				c-1.1315308-6.7666016-3.2717285-12.2922363-6.3658447-16.4290771l0,0
				c-1.8418579-2.4611816-4.5557861-4.0299072-7.6453247-4.4146729
				C831.0321655,1223.0101318,830.5380859,1222.9782715,830.0463257,1222.9782715z"/>
		</g>
		<g>
			<path class="st0" d="M960.053894,1267.6506348c-1.2089844,0-2.4315796-0.0955811-3.6610718-0.2891846
				c-7.2468872-1.1451416-13.4874878-5.3913574-18.0478516-12.2808838
				c-7.4631958-11.2790527-9.8469849-29.390625-5.9286499-45.0706787
				c2.1947632-8.7701416,6.6777344-15.9487305,13.3258667-21.3309326c4.9246216-3.9866943,11.3450928-5.819458,17.6312256-5.0384521
				c6.2610474,0.7808838,11.7776489,3.9797363,15.5343018,9.0021973c4.2165527,5.6418457,7.0875854,12.8706055,8.5264893,21.4858398
				c3.0827026,18.4349365-1.1361084,36.6148682-10.7508545,46.3138428
				C972.0091553,1265.15979,966.2079468,1267.6506348,960.053894,1267.6506348z M960.4454956,1195.1153564
				c-2.6752319,0-5.2479248,0.9084473-7.3676147,2.6251221c-4.6400146,3.7542725-7.786499,8.8337402-9.350647,15.097168
				c-3.1259766,12.501709-1.3410034,27.2277832,4.3394775,35.8088379c2.7435303,4.1483154,6.1586914,6.5708008,10.1430054,7.1990967
				c3.8568115,0.6239014,7.1854248-0.5714111,10.1953125-3.6086426c6.9509277-7.0146484,9.9790649-21.5563965,7.5315552-36.1867676
				c-1.1292725-6.7642822-3.2717285-12.2900391-6.3658447-16.4268799h-0.0022583
				c-1.8396606-2.463501-4.5512695-4.0299072-7.6408081-4.4168701
				C961.4313354,1195.1448975,960.9372559,1195.1153564,960.4454956,1195.1153564z"/>
		</g>
		<path class="st0" d="M1157.4262695,1167.5756836c-14.2617188-9.6398926-32.5872803-10.1225586-44.6018066-1.4639893
			c-10.0653076-0.2874756-48.8205566,0.756958-62.5710449,33.1627197l-7.8059082,3.880127
			c-3.5426025,1.762207-6.1790771,4.8017578-7.4244385,8.5583496c-1.2431641,3.7567139-0.9403076,7.7683105,0.8492432,11.2950439
			l12.7749023,25.1627197c1.8214111,3.5904541,4.942749,6.2200928,8.788208,7.4085693
			c1.4389648,0.4439697,2.90979,0.6647949,4.3691406,0.6647949c2.4406738,0,4.8563232-0.6169434,7.0625-1.8282471
			l9.9244385-5.4510498c12.8118896-4.322998,23.15979-8.9158936,31.4920654-13.9924316
			c7.1171875,2.0285645,26.3900146,6.2838135,42.2840576-1.4389648
			c9.2504883-4.4920654,15.7619629-12.1669922,19.3569336-22.8131104
			C1177.5823975,1193.9769287,1172.0247803,1177.4431152,1157.4262695,1167.5756836z M1060.8734131,1244.4390869
			c-0.4644775-0.1412354-1.3182373-0.5328369-1.8305664-1.5437012l-12.7749023-25.1650391
			c-0.3734131-0.7353516-0.4371338-1.5709229-0.1776123-2.354126c0.2596436-0.7832031,0.8082275-1.4161377,1.5482178-1.7850342
			l4.7169189-2.3444824l16.184082,30.0489502l-5.284668,2.9020996
			C1062.2645264,1244.7418213,1061.3377686,1244.5847168,1060.8734131,1244.4390869z M1160.8823242,1206.9908447
			c-2.5909424,7.6682129-6.9622803,12.9138184-13.3691406,16.0375977
			c-12.0872803,5.8945313-27.942627,2.4178467-33.8098145,0.7877197l-5.6168213-12.6998291
			c-1.3023682-2.9483643-4.7515869-4.2802734-7.6864014-2.9733887c-2.9438477,1.3000488-4.2757568,4.7424316-2.9733887,7.6862793
			l4.6263428,10.4663086c-6.2838135,3.5949707-13.8312988,6.9624023-22.8609619,10.1953125l-17.9431152-33.3157959
			c11.293335-25.0953369,44.3100586-25.6021729,51.5544434-25.3898926
			c2.5003662,1.8134766,8.2037354,6.6877441,5.4647217,11.7907715c-1.7143555,3.1943359-6.0083008,3.1715088-14.40271,1.9626465
			c-5.0657959-0.7376709-9.4486084-1.3706055-13.0048828,0.6282959
			c-6.7711182,3.8022461-9.9562988,11.3474121-10.2955322,12.1943359c-1.2021484,2.9871826,0.2481689,6.3818359,3.2330322,7.581665
			c0.7126465,0.2868652,1.447998,0.4234619,2.1719971,0.4234619c2.3109131,0,4.496582-1.381958,5.4095459-3.6564941
			c0.3688965-0.9152832,2.2403564-4.5421143,4.9041748-6.2109375c1.0837402-0.1162109,3.9729004,0.2958984,5.9127197,0.5759277
			c7.6567383,1.1087646,20.4703369,2.9643555,26.3444824-7.9868164c4.6911621-8.7404785,1.1252441-16.6624756-3.7615967-22.1252441
			c7.8249512-2.6931152,17.9534912-1.2497559,26.1192627,4.2685547
			C1155.8028564,1180.5463867,1166.5924072,1190.0837402,1160.8823242,1206.9908447z"/>
		<path class="st0" d="M405.4704285,1115.6381836c-3.2193298,0-5.8285217,2.6091309-5.8285217,5.8284912v22.088623
			l-12.1430969,1.8330078v-14.0563965c0-5.2001953-3.3809814-9.7513428-8.4148865-11.324585
			c-9.0546875-2.8255615-17.9568176-1.4731445-25.7513123,3.9136963
			c-10.8783569,7.515625-17.3375244,21.5859375-17.8919067,31.0095215
			c-0.3745422,6.3725586,2.4281616,9.7558594,4.8449402,11.4703369c7.1604004,5.0908203,18.8253784,0.6351318,21.0896301-0.3096924
			c2.9666138-1.2363281,4.3668213-4.6378174,3.1373596-7.6066895c-1.2294312-2.9711914-4.6331787-4.3736572-7.6089172-3.1578369
			c-3.8670654,1.5914307-8.4513245,2.1970215-9.7502136,1.630127c-0.0489502-0.1821289-0.1195374-0.5942383-0.0762939-1.3432617
			c0.3267212-5.5484619,4.6468811-16.4108887,12.8830566-22.1027832c4.8016968-3.3172607,10.0678406-4.1209717,15.6481628-2.3746338
			c0.1502686,0.0455322,0.2333679,0.1456299,0.2333679,0.1958008v35.597168c0,3.2192383,2.6091919,5.8284912,5.8285217,5.8284912
			s5.8284912-2.6092529,5.8284912-5.8284912v-9.7531738l12.1430969-1.8330078v11.5861816
			c0,3.2192383,2.6091919,5.8284912,5.8285217,5.8284912s5.8284912-2.6092529,5.8284912-5.8284912v-45.4624023
			C411.2989197,1118.2473145,408.6897583,1115.6381836,405.4704285,1115.6381836z"/>
		<path class="st0" d="M470.1987,1146.3425293c-1.8350525-0.102417-4.2415771-0.4758301-5.2854919-1.6824951
			c-1.7576599-2.0285645-1.2601929-7.6954346-0.8207703-12.6975098c0.7832031-8.9134521,1.8544312-21.1192627-8.8110657-27.2141113
			c-6.9611816-3.977417-12.7749023-3.1691895-16.4268188-1.7849121c-10.92276,4.1276855-15.9259338,17.9841309-16.460968,19.5505371
			c-1.0393372,3.0462646,0.5874023,6.3588867,3.6336975,7.3994141c3.048584,1.0336914,6.3590088-0.5874023,7.3994751-3.633667
			c1.1247253-3.2967529,4.9394226-10.6689453,9.5498657-12.4129639c1.23172-0.4644775,3.2489319-0.8696289,6.5217896,1.0041504
			c2.9468384,1.6829834,3.5673828,5.1402588,3.3735962,10.3953857c-7.1160278,1.9588623-20.5575867,6.6773682-26.0603638,15.4868164
			c-2.4759827,3.9637451-3.1738281,8.4147949-2.0183716,12.8704834c1.7132874,6.6116943,6.0402527,8.7860107,8.466156,9.4940186
			c1.1486206,0.3370361,2.3416443,0.4873047,3.5631104,0.4873047c7.2971802,0,15.5575256-5.4287109,20.9432068-9.7109375
			c2.9091492,2.4298096,6.8513489,3.8129883,11.786377,4.0872803c0.1104126,0.0068359,0.219696,0.0091553,0.3289795,0.0091553
			c3.0702209,0,5.6418152-2.4019775,5.8137207-5.505249C475.8735352,1149.2705078,473.4123535,1146.5201416,470.1987,1146.3425293z
			 M436.6153564,1151.9866943c-0.0762634-0.0751953-0.3221436-0.453125-0.5384521-1.286377
			c-0.3551636-1.3729248-0.1707458-2.4998779,0.6192932-3.7657471c2.3907166-3.8364258,9.1017761-7.1013184,15.333252-9.2231445
			c-0.0479431,1.9039307,0.011261,3.7785645,0.2602539,5.5882568
			C445.5550537,1148.9958496,438.4771729,1152.6380615,436.6153564,1151.9866943z"/>
		<path class="st0" d="M721.2821045,1098.2961426c-1.835083-0.1025391-4.2404785-0.4758301-5.2855225-1.6826172
			c-1.7576294-2.0285645-1.2601929-7.6976318-0.8207397-12.6973877c0.7832031-8.9135742,1.8543701-21.121582-8.8110962-27.2164307
			c-6.960022-3.9775391-12.776001-3.1693115-16.4256592-1.7850342c-10.9238892,4.130127-15.927063,17.9864502-16.4621582,19.5528564
			c-1.0393066,3.0462646,0.5874023,6.3590088,3.6348877,7.3994141c3.0496826,1.0360107,6.3589478-0.5874023,7.3983154-3.633667
			c1.1246948-3.2990723,4.9394531-10.6711426,9.5498657-12.4151611c1.2340088-0.4644775,3.2478027-0.869751,6.5217896,1.0040283
			c2.9469604,1.6831055,3.5673828,5.1409912,3.3735962,10.3977051c-7.1160278,1.9588623-20.5576172,6.6774902-26.0603638,15.4868164
			c-2.4760132,3.9660645-3.1738281,8.414917-2.0183716,12.8704834c1.7132568,6.6116943,6.0402832,8.7860107,8.4661255,9.4941406
			c1.147522,0.3347168,2.3416748,0.4871826,3.5620117,0.4871826c7.2977295,0,15.5581055-5.4283447,20.9437866-9.7111816
			c2.9092407,2.4301758,6.8516235,3.8132324,11.7869263,4.0876465c0.1104126,0.0068359,0.2197266,0.0090332,0.3289795,0.0090332
			c3.0701904,0,5.6417847-2.4019775,5.8137207-5.505127C726.9569092,1101.223999,724.4957275,1098.4736328,721.2821045,1098.2961426
			z M687.6987305,1103.9401855c-0.0762939-0.0750732-0.3221436-0.453125-0.5384521-1.286377
			c-0.3551636-1.3729248-0.1707764-2.4998779,0.6192627-3.7657471c2.3907471-3.8363037,9.1018066-7.1011963,15.333313-9.2231445
			c-0.0479736,1.9033203,0.0110474,3.7766113,0.2598267,5.5854492
			C696.6392822,1100.9467773,689.5554199,1104.5976563,687.6987305,1103.9401855z"/>
		<path class="st0" d="M1042.3747559,1038.319458c-1.835083-0.1025391-4.2416992-0.4759521-5.2844238-1.6826172
			c-1.7576904-2.0285645-1.2613525-7.6976318-0.8218994-12.699707c0.7832031-8.9112549,1.8555908-21.1192627-8.8110352-27.2141113
			c-6.9623413-3.9797974-12.7772217-3.1692505-16.4268799-1.7849731
			c-10.9238892,4.1300049-15.9259033,17.9863892-16.4609375,19.5527954c-1.038208,3.0463257,0.5874023,6.3590088,3.633667,7.3994751
			c3.048584,1.038208,6.3612671-0.5874023,7.3994751-3.633728c1.1247559-3.2990112,4.9406128-10.6711426,9.5510254-12.4151611
			c1.2294312-0.4644775,3.2466431-0.8674316,6.5206299,1.0040283c2.9467163,1.6831055,3.567688,5.1403809,3.3742065,10.3956909
			c-7.1154785,1.9591675-20.5563354,6.6794434-26.0575562,15.4888306c-2.4771118,3.9638672-3.1738281,8.414917-2.0194702,12.8704834
			c1.7144165,6.6116943,6.0402222,8.7860107,8.4672852,9.4941406c1.1474609,0.3345947,2.3404541,0.4871826,3.5608521,0.4871826
			c7.2969971,0,15.5568237-5.4298096,20.9424438-9.7124023c2.9088135,2.4301758,6.8510742,3.8144531,11.7860107,4.0888672
			c0.1092529,0.0068359,0.2185059,0.0090332,0.3277588,0.0090332c3.0714111,0,5.6418457-2.4019775,5.8149414-5.505127
			C1048.0506592,1041.2473145,1045.5894775,1038.4969482,1042.3747559,1038.319458z M1008.7947388,1043.963501
			c-0.0773926-0.0751953-0.3233032-0.453125-0.5395508-1.286377c-0.3551636-1.3729248-0.1707764-2.4998779,0.6192627-3.7657471
			c2.390625-3.8380127,9.100769-7.1032715,15.3311157-9.2254639c-0.0483398,1.904541,0.0108643,3.7794189,0.2598877,5.5894775
			C1017.7287598,1040.9760742,1010.6361084,1044.6231689,1008.7947388,1043.963501z"/>
		<path class="st0" d="M1069.4431152,1119.574707c-1.835083-0.102417-4.2415771-0.4758301-5.2844238-1.6824951
			c-1.7575684-2.0286865-1.2612305-7.6954346-0.8218994-12.6975098c0.7832031-8.9135742,1.8555908-21.1192627-8.8110352-27.2141113
			c-6.9577637-3.9752197-12.7749023-3.1693115-16.4267578-1.7850342
			c-10.9239502,4.1278076-15.9260254,17.9841309-16.4610596,19.5505371
			c-1.038147,3.0463867,0.5874023,6.3590088,3.6337891,7.3995361c3.0507813,1.0358887,6.3588867-0.5897217,7.3994141-3.6337891
			c1.1247559-3.2967529,4.9383545-10.6688232,9.5487061-12.4128418c1.2363281-0.4667969,3.2512207-0.8674316,6.5229492,1.0040283
			c2.9466553,1.6831055,3.5673828,5.1403809,3.3741455,10.3951416c-7.1159668,1.9588623-20.5585938,6.6774902-26.0598145,15.4870605
			c-2.4771118,3.9661865-3.1737671,8.414917-2.0194092,12.8706055c1.7143555,6.6116943,6.0401611,8.7860107,8.4671631,9.4940186
			c1.147583,0.3369141,2.3405762,0.4871826,3.5609131,0.4871826c7.2987061,0,15.5588379-5.4283447,20.944458-9.7103271
			c2.9091797,2.4299316,6.8513184,3.8123779,11.7862549,4.086792c0.1092529,0.0068359,0.2185059,0.0091553,0.3278809,0.0091553
			c3.0712891,0,5.6417236-2.4019775,5.8148193-5.505249
			C1075.1168213,1122.5025635,1072.6578369,1119.7523193,1069.4431152,1119.574707z M1035.8608398,1125.21875
			c-0.0773926-0.0750732-0.3232422-0.4530029-0.5395508-1.286377c-0.3552246-1.3728027-0.1707764-2.4998779,0.6192627-3.7657471
			c2.390625-3.8365479,9.1019287-7.1011963,15.333374-9.2233887c-0.0483398,1.9041748,0.0108643,3.7791748,0.2596436,5.588623
			C1044.7954102,1122.2310791,1037.7042236,1125.8762207,1035.8608398,1125.21875z"/>
		<path class="st0" d="M555.2243042,1135.8808594c-2.1663208-2.4543457-2.6968384-15.4500732-1.104187-27.4622803
			c0.0129395-0.09729,0.0010986-0.1912842,0.0090942-0.2879639c0.5176392-3.4294434,0.7154541-6.8320313,0.4314575-10.0963135
			c-0.5270996-6.0629883-3.5745239-10.6074219-8.5811157-12.7977295c-7.7842407-3.3991699-17.590271-0.0113525-23.8627319,4.854126
			c-6.5753174,5.1021729-9.727478,11.8436279-8.6471558,18.4940186c1.5800781,9.7286377,7.0716553,14.234375,11.4008789,16.2994385
			c3.1680908,1.5117188,6.5195313,2.142334,9.7218018,2.2038574c-3.6359863,5.7192383-7.8218384,10.0268555-11.2176514,11.3132324
			c-4.4317017,1.6870117-11.7628479-6.6618652-14.7032776-11.5067139c-1.6631775-2.7526855-5.2433777-3.6451416-7.9971313-1.980835
			c-2.7583008,1.65979-3.6473694,5.2410889-1.9864807,8.0004883c1.1998596,1.9921875,10.8908997,17.4082031,23.3470459,17.4082031
			c1.7724609,0,3.6018066-0.3120117,5.4699097-1.0200195c5.1554565-1.9534912,10.6286011-7.0283203,15.3110962-13.6782227
			c1.1795044,4.6821289,3.2245483,8.5059814,6.6266479,10.3769531c0.8901978,0.489502,1.8532715,0.7216797,2.8026733,0.7216797
			c2.0570679,0,4.0515137-1.0905762,5.1124878-3.0189209C558.87854,1140.9375,557.9199829,1137.479126,555.2243042,1135.8808594z
			 M529.8919678,1114.3631592c-2.6797485-1.2772217-4.2883301-3.7794189-4.9155273-7.6453857
			c-0.3699951-2.2744141,1.2328491-5.0474854,4.2860107-7.4154053c3.3103638-2.5704346,7.1148682-3.772583,9.8048096-3.772583
			c0.8879395,0,1.6563721,0.1320801,2.2437744,0.3894043c0.4598999,0.2003174,1.418396,0.6192627,1.6358643,3.1259766
			c0.2127075,2.4412842,0.0787964,5.0042725-0.3257446,7.6032715c-0.0140991,0.0795898-0.0447998,0.1522217-0.055603,0.2332764
			c-0.0062866,0.0472412-0.0122681,0.1002197-0.0184937,0.1477051c-0.414978,2.5053711-1.0645752,5.0394287-1.9156494,7.5273438
			C537.7069092,1115.5379639,533.1829834,1115.9364014,529.8919678,1114.3631592z"/>
		<g>
			<path class="st0" d="M568.960022,1146.7227783c-3.2193604,0-5.8284912-2.6091309-5.8284912-5.8284912v-23.753418
				c0-0.043335,0-0.0842285,0-0.1275635v-24.3613281c0-7.2104492,5.4437256-13.0913086,12.6621704-13.6787109
				c12.6951904-1.0155029,21.3207397,4.2028809,23.7078857,14.3481445
				c1.4685059,6.2406006,0.4269409,12.0554199-3.0109863,16.8138428
				c-5.4175415,7.4973145-15.4534912,10.6552734-21.7020874,11.9393311v18.8197021
				C574.7885132,1144.1136475,572.1793213,1146.7227783,568.960022,1146.7227783z M578.9822998,1090.4981689
				c-0.6932373,0-1.4400635,0.0296631-2.2460327,0.0957031c-1.1099243,0.0887451-1.9477539,0.9743652-1.9477539,2.0581055
				v17.4445801c4.4920654-1.18396,9.7536621-3.3149414,12.2637939-6.8029785
				c0.9118042-1.2681885,2.0194702-3.4038086,1.1019287-7.303833
				C587.7876587,1094.4301758,586.8610229,1090.4981689,578.9822998,1090.4981689z"/>
		</g>
		<g>
			<path class="st0" d="M741.7808838,1109.9439697c-3.2192993,0-5.8284912-2.6091309-5.8284912-5.8284912v-23.7510986
				c0-0.043335,0-0.0888672,0-0.1320801v-24.3613281c0-7.2105713,5.4437256-13.0891113,12.6621704-13.6765137
				c12.6918335-1.008667,21.3207397,4.2052002,23.7090454,14.3481445c1.4685059,6.2406006,0.4280396,12.0554199-3.012146,16.8138428
				c-5.4163818,7.4974365-15.4523315,10.6552734-21.7020874,11.9393311v18.8197021
				C747.609375,1107.3348389,745.0002441,1109.9439697,741.7808838,1109.9439697z M751.8043213,1053.7193604
				c-0.694397,0-1.4411621,0.0296631-2.2471313,0.0957031c-1.1099243,0.0887451-1.9478149,0.9744873-1.9478149,2.0559082v17.4467773
				c4.4920654-1.18396,9.7559204-3.3149414,12.2649536-6.8029785c0.9129639-1.2680664,2.0194702-3.4036865,1.1019287-7.303833
				C760.6096802,1057.6513672,759.6830444,1053.7193604,751.8043213,1053.7193604z"/>
		</g>
		<g>
			<path class="st0" d="M609.2598267,1216.7559814c-3.2193604,0-5.8285522-2.6092529-5.8285522-5.8286133v-23.753418
				c0-0.0432129,0-0.0842285,0-0.1274414v-24.3636475c0-7.2104492,5.4437256-13.0891113,12.6622314-13.6765137
				c12.6895142-1.0177002,21.3195801,4.1983643,23.7078857,14.3459473c1.4685059,6.2406006,0.4268799,12.0554199-3.0109863,16.81604
				c-5.4176025,7.4951172-15.4535522,10.6552734-21.7020874,11.9393311v18.8197021
				C615.0883179,1214.1467285,612.479126,1216.7559814,609.2598267,1216.7559814z M619.2911987,1160.5290527
				c-0.6955566,0-1.4445801,0.0318604-2.2528687,0.0979004c-1.1121826,0.0887451-1.9500122,0.9744873-1.9500122,2.0559082
				v17.4467773c4.4920654-1.1838379,9.7536011-3.3171387,12.2637329-6.8028564
				c0.9118652-1.2681885,2.0195313-3.4061279,1.1019897-7.3061523
				C628.0874634,1164.4610596,627.1619873,1160.5290527,619.2911987,1160.5290527z"/>
		</g>
		<g>
			<path class="st0" d="M751.3444214,1190.0700684c-3.2193604,0-5.8284912-2.6092529-5.8284912-5.8286133v-23.753418
				c0-0.0432129,0-0.0842285,0-0.1274414v-24.3636475c0-7.2104492,5.4437256-13.0891113,12.6621704-13.6765137
				c12.6747437-1.0198975,21.3195801,4.1983643,23.7079468,14.3459473
				c1.4685059,6.2406006,0.4279785,12.0554199-3.012146,16.8161621
				c-5.4164429,7.4949951-15.4523926,10.6551514-21.7020874,11.9393311v18.8195801
				C757.171814,1187.4608154,754.5626221,1190.0700684,751.3444214,1190.0700684z M761.3746948,1133.8431396
				c-0.6967163,0-1.4457397,0.0318604-2.2539673,0.0979004c-1.111084,0.0888672-1.9489136,0.9744873-1.9489136,2.0559082v17.4467773
				c4.4943237-1.1838379,9.7559204-3.3171387,12.2648926-6.8028564c0.9129639-1.2681885,2.0194702-3.4061279,1.1019287-7.3061523
				C770.1721191,1137.7773438,769.2454224,1133.8431396,761.3746948,1133.8431396z"/>
		</g>
		<g>
			<path class="st0" d="M867.1142578,1171.5827637c-0.0318604,0-0.0637207,0-0.0933228,0
				c-3.2193604-0.0523682-5.7875366-2.7025146-5.7374878-5.9195557l0.3756714-23.8012695c0-0.0091553,0-0.0183105,0-0.0273438
				l0.3848267-24.4091797c0.1160889-7.2127686,5.6531372-13.0048828,12.8795776-13.4760742
				c12.7043457-0.8105469,21.2490234,4.5374756,23.4779663,14.7192383
				c1.3706055,6.265625,0.2368164,12.0622559-3.2762451,16.7659912c-5.53479,7.4085693-15.6208496,10.4071045-21.8887939,11.5932617
				l-0.2959595,18.8175049C872.8903809,1169.0327148,870.2903442,1171.5827637,867.1142578,1171.5827637z M877.5441284,1115.5197754
				c-0.5828857,0-1.2044067,0.0205078-1.8624268,0.0637207c-1.1133423,0.0706787-1.9648438,0.942627-1.9807739,2.0263672
				l-0.2755127,17.4422607c4.5103149-1.1134033,9.8060303-3.1601563,12.3696899-6.6071777
				c0.9334717-1.2545166,2.0740967-3.3741455,1.2180176-7.2856445
				C886.6647949,1119.5701904,885.7791138,1115.5197754,877.5441284,1115.5197754z"/>
		</g>
		<g>
			<path class="st0" d="M610.9252319,1135.7351074c-3.2192993,0-5.8284912-2.6091309-5.8284912-5.8284912v-49.4603271
				c0-2.9530029,1.7485352-5.6258545,4.4533691-6.8098145c2.7059326-1.1816406,5.8546753-0.6556396,8.0232544,1.3479004
				l12.8796387,11.8891602l13.9998169-17.7678223c1.8407593-2.3359375,4.883667-3.3444824,7.753479-2.5841064
				c2.869873,0.7650146,5.0054932,3.1578369,5.4403687,6.097168l6.4489136,43.6136475
				c0.4712524,3.1828613-1.729187,6.1472168-4.913269,6.6162109c-3.1976929,0.4667969-6.1472168-1.7280273-6.6185303-4.913208
				l-5.015686-33.9213867l-10.7645264,13.6605225c-1.279541,1.623291-3.1943359,2.6478271-5.2547607,2.8117676
				c-2.046814,0.1730957-4.1107178-0.5487061-5.6281738-1.9511719l-9.1468506-8.4422607v39.8137207
				C616.7537842,1133.1259766,614.1445923,1135.7351074,610.9252319,1135.7351074z"/>
		</g>
		<path class="st0" d="M827.4940796,1079.8361816l-25.5907593-17.1622314l21.9957275-18.3280029
			c2.4725952-2.0627441,2.807251-5.7374268,0.7468262-8.2099609c-2.0650635-2.4702148-5.7374268-2.8027344-8.210022-0.7468262
			l-18.416687,15.3493652v-10.8709717c0-3.2192383-2.6091919-5.8284912-5.8285522-5.8284912
			c-3.2192993,0-5.8284912,2.6092529-5.8284912,5.8284912v53.0394287c0,3.2193604,2.6091919,5.8284912,5.8284912,5.8284912
			c3.2193604,0,5.8285522-2.6091309,5.8285522-5.8284912v-18.802002l22.9815674,15.4119873
			c0.9972534,0.6693115,2.1242676,0.9880371,3.2421265,0.9880371c1.8760376,0,3.7202148-0.9061279,4.8449707-2.5817871
			C830.881897,1085.2502441,830.1669922,1081.6279297,827.4940796,1079.8361816z"/>
		<path class="st0" d="M879.5157471,1074.1646729c-1.0153809-3.0531006-4.3189697-4.701416-7.3721313-3.6883545
			l-19.5527954,6.5115967l-1.7332153-10.5217285l16.550354-4.6688232c3.0986938-0.8742676,4.9018555-4.0936279,4.0275879-7.1922607
			c-0.8742676-3.0964355-4.0958862-4.8950195-7.1922607-4.0275879l-15.2918701,4.3138428l-1.7907104-10.8709717
			l19.1248169-5.5484619c3.0895386-0.899292,4.8699951-4.1323242,3.9729614-7.2241211
			c-0.8970337-3.0895996-4.116394-4.8676758-7.2241821-3.9729004l-20.0946655,5.8330078
			c-5.1090698,1.4890137-8.3101807,6.5684814-7.4450073,11.8186035l5.8103027,35.2647705
			c0.5008545,3.0440674,2.3040771,5.7055664,4.9451294,7.3016357c1.6619873,1.001709,3.5426025,1.5140381,5.4368896,1.5140381
			c1.1178589,0,2.2426147-0.1776123,3.3286133-0.5396729l20.8118286-6.9304199
			C878.8805542,1080.519165,880.5335083,1077.2200928,879.5157471,1074.1646729z"/>
		<path class="st0" d="M511.2031555,1227.770874c-0.7695313-3.1236572-3.9273987-5.0316162-7.0522461-4.2666016
			l-20.0104675,4.9291992l-0.887085-10.6291504l16.8699646-3.3320313c3.1578674-0.62146,5.212616-3.6883545,4.5888062-6.8461914
			c-0.6238403-3.1601563-3.6906433-5.2319336-6.8473511-4.5876465l-15.586853,3.0787354l-0.9162598-10.979126l19.506134-4.0047607
			c3.1533203-0.6489258,5.1842041-3.7293701,4.5364685-6.8826904c-0.6466064-3.1533203-3.7270813-5.1660156-6.8815308-4.5375977
			l-20.4908447,4.2075195c-5.2160339,1.0722656-8.8144531,5.8808594-8.3704834,11.1856689l2.9734497,35.6176758
			c0.256134,3.0736084,1.8395996,5.8717041,4.3451843,7.6726074c1.8088989,1.3000488,3.9558716,1.9785156,6.1381531,1.9785156
			c0.8412476,0,1.6870728-0.1000977,2.5203552-0.3050537l21.2991028-5.2456055
			C510.0636292,1234.0546875,511.9738464,1230.8968506,511.2031555,1227.770874z"/>
		<path class="st0" d="M682.1582642,1193.6513672c-0.7695923-3.1237793-3.9285889-5.0316162-7.0534058-4.2666016
			l-20.010437,4.9268799l-0.8873901-10.6268311l16.8702393-3.3320313c3.1578369-0.621582,5.2126465-3.6883545,4.5888062-6.8461914
			s-3.6758423-5.2342529-6.8473511-4.5876465l-15.5875854,3.0787354l-0.916687-10.979126l19.5073242-4.0047607
			c3.1532593-0.6489258,5.1841431-3.7293701,4.536438-6.8826904c-0.6466064-3.151001-3.7270508-5.1682129-6.8815308-4.5375977
			l-20.4920044,4.2073975c-5.2137451,1.0723877-8.8121948,5.8786621-8.3704834,11.185791l2.9746094,35.6176758
			c0.2561035,3.0758057,1.8407593,5.8740234,4.3474731,7.6726074c1.8088989,1.3000488,3.9547119,1.9785156,6.1335449,1.9785156
			c0.8413086,0,1.6882324-0.102417,2.5227051-0.307373l21.2990723-5.2434082
			C681.0175781,1199.9351807,682.9277954,1196.7773438,682.1582642,1193.6513672z"/>
		<path class="st0" d="M945.3164063,1147.2304688c-0.7717896-3.1259766-3.9296875-5.0292969-7.0534058-4.2666016
			l-20.0081787,4.9268799l-0.8873291-10.6270752l16.8701782-3.331665c3.1578979-0.621582,5.2115479-3.6883545,4.5877075-6.8463135
			c-0.621582-3.1601563-3.7042847-5.2297363-6.8462524-4.5876465l-15.5875244,3.0784912l-0.916687-10.9788818l19.5072632-4.0047607
			c3.1533203-0.6489258,5.1842041-3.7293701,4.5375977-6.8826904c-0.6488647-3.1533203-3.7338867-5.1705322-6.8826294-4.5375977
			l-20.493103,4.2075195c-5.2160645,1.0723877-8.8133545,5.8808594-8.3693848,11.1856689l2.9734497,35.6199951
			c0.2572632,3.0758057,1.8441772,5.8717041,4.3508911,7.6726074c1.8077393,1.2977295,3.9547119,1.9761963,6.1312866,1.9761963
			c0.8424072,0,1.6893921-0.102417,2.522644-0.307251l21.296814-5.2434082
			C944.1757813,1153.5144043,946.0859375,1150.3564453,945.3164063,1147.2304688z"/>
		<g>
			<path class="st0" d="M963.4417114,1150.3587646c-2.4361572,0-4.9473877-0.4143066-7.4199829-1.4525146
				c-7.7455444-3.25354-12.5449219-11.4863281-14.263916-24.4707031
				c-1.6278687-12.2990723,0.7399902-21.2625732,7.0352173-26.6425781
				c9.1616821-7.829834,22.2553101-4.2484131,23.7147217-3.8135986c3.0872803,0.9152832,4.8449707,4.159668,3.9296875,7.2446289
				c-0.9129639,3.0804443-4.1414185,4.8381348-7.2218628,3.9365234c-2.3268433-0.6624756-9.1639404-1.6848145-12.8773804,1.5185547
				c-3.8363037,3.3104248-3.7611694,10.6507568-3.0234985,16.2265625c1.1019287,8.3283691,3.6587524,13.7424316,7.201355,15.2429199
				c4.744751,2.0172119,12.0463257-2.1516113,14.2320557-3.7658691c2.5863647-1.9146729,6.2314453-1.3751221,8.1484985,1.1953125
				c1.9193115,2.5750732,1.4024658,6.2087402-1.1657104,8.137207
				C980.6289673,1144.5439453,972.555542,1150.3587646,963.4417114,1150.3587646z"/>
		</g>
		<g>
			<path class="st0" d="M1002.3105469,1144.7921143c-2.4361572,0-4.9473877-0.4144287-7.4199829-1.4526367
				c-7.7478027-3.253418-12.5471802-11.4885254-14.2661743-24.4729004
				c-1.6278687-12.2989502,0.7399902-21.2625732,7.0374756-26.6425781
				c9.1616821-7.8275146,22.2530518-4.2484131,23.7124634-3.8135986c3.0872803,0.9152832,4.8449707,4.159668,3.9296875,7.2446289
				c-0.9129639,3.0804443-4.1414185,4.8336182-7.2218628,3.9365234c-2.3268433-0.6624756-9.1616821-1.6824951-12.8751221,1.5186768
				c-3.838562,3.3126221-3.7634888,10.6529541-3.0258179,16.2264404c1.1019897,8.3283691,3.6610718,13.7425537,7.2036743,15.2451172
				c4.7402344,2.0150146,12.0463867-2.1514893,14.2320557-3.7657471c2.5863647-1.9146729,6.2337646-1.3751221,8.1484985,1.1953125
				c1.9193115,2.5750732,1.4025269,6.2087402-1.1656494,8.137207
				C1019.4978027,1138.9772949,1011.4244385,1144.7921143,1002.3105469,1144.7921143z"/>
		</g>
		<g>
			<path class="st0" d="M925.0964966,1070.9613037c-2.4360962,0-4.9473877-0.4143066-7.4199219-1.4525146
				c-7.7455444-3.25354-12.5449829-11.4863281-14.263916-24.4707031
				c-1.6278687-12.2990723,0.7399292-21.2626343,7.0351563-26.6425781
				c9.1640015-7.829834,22.2553711-4.2484741,23.7147217-3.8135986c3.0873413,0.9152832,4.8449707,4.159668,3.9296875,7.2446289
				c-0.9129639,3.0804443-4.1414185,4.8381348-7.2218628,3.9365234c-2.3268433-0.6624756-9.1616821-1.6848145-12.8773193,1.5185547
				c-3.8363647,3.3104248-3.7612305,10.6507568-3.0235596,16.2265625c1.1019287,8.3283691,3.6587524,13.7424316,7.201416,15.2429199
				c4.7424927,2.0148926,12.0463257-2.1516113,14.2319946-3.7657471c2.5886841-1.9147949,6.2315063-1.3752441,8.1485596,1.1951904
				c1.9192505,2.5750732,1.4024658,6.2087402-1.1657104,8.137207
				C942.2837524,1065.1464844,934.2103882,1070.9613037,925.0964966,1070.9613037z"/>
		</g>
		<path class="st0" d="M988.6295166,1046.4862061l-25.1741333-14.651001l19.7508545-17.963623
			c2.3815308-2.1652222,2.5568237-5.8513184,0.3916016-8.2327881c-2.1629028-2.3814697-5.8512573-2.5568237-8.2327271-0.3916016
			l-17.8287354,16.2145386l-1.9904785-11.1737671c-0.5646362-3.1692505-3.5904541-5.2775269-6.7597046-4.71521
			c-3.1692505,0.5646362-5.2797852,3.5904541-4.7151489,6.7597046l9.0774536,50.9607544
			c0.5031128,2.8231201,2.9597778,4.8062744,5.7305908,4.8062744c0.3392334,0,0.6829834-0.0296631,1.0290527-0.0911865
			c3.1692505-0.5645752,5.2798462-3.590332,4.71521-6.7596436l-3.029541-17.0079346l21.1707764,12.3223877
			c0.9220581,0.5350342,1.9306641,0.7900391,2.9279175,0.7900391c2.0057983,0,3.9592285-1.0360107,5.0429688-2.8961182
			C992.354248,1051.6749268,991.4116821,1048.1071777,988.6295166,1046.4862061z"/>
		<g>
			<path class="st0" d="M1069.0378418,1049.425415c-5.2592773,0-10.3433838-1.5845947-13.7175293-3.8339844
				c-2.6774902-1.7850342-3.4014893-5.4050293-1.6164551-8.0825195c1.7850342-2.6798096,5.4073486-3.4014893,8.0825195-1.6165771
				c2.2607422,1.5072021,7.5041504,2.7458496,11.4588623,1.1361084c2.8710938-1.1656494,4.6833496-3.6860352,5.5462646-7.7067871
				c0.4508057-2.1037598,0.3164063-3.6268311-0.3962402-4.5284424c-1.1748047-1.4776611-4.4395752-2.4452515-8.5218506-2.5203857
				c-2.800415-0.0546875-5.2821045-1.65979-6.4727783-4.18927c-1.18396-2.5135498-0.8470459-5.4232178,0.8787842-7.5975342
				c2.7617188-3.4720459,6.8166504-9.869751,2.975708-13.708374c-1.4093018-1.4093018-2.2858887-1.3250732-2.697998-1.2772827
				c-2.9141846,0.2846069-7.0465088,4.5581055-8.9226074,7.3562012c-1.7940674,2.668396-5.4118652,3.3901367-8.0778809,1.6119995
				c-2.6729736-1.7804565-3.4061279-5.3800049-1.6347656-8.0597534c0.7808838-1.1793823,7.8980713-11.5431519,17.458252-12.5062256
				c3.0986328-0.3119507,7.720459,0.2390137,12.1168213,4.6331787c5.9697266,5.9674072,6.5913086,14.263916,1.9990234,23.0066528
				c3.7293701,0.9334717,7.4290771,2.7252808,10.0313721,6.0083618c2.0491943,2.5841675,4.1756592,7.1490479,2.6616211,14.2115479
				c-2.1264648,9.9289551-8.0028076,14.2160645-12.5563965,16.0671387
				C1074.8845215,1048.9450684,1071.9338379,1049.425415,1069.0378418,1049.425415z"/>
		</g>
		<g>
			<path class="st0" d="M1119.2700195,1036.3499756c-0.2231445,0-0.4486084-0.0045166-0.6739502-0.0113525
				c-8.517334-0.3164063-18.2346191-6.9053955-19.9694824-24.4546509
				c-2.0809326-21.0714111,9.5418701-29.7185669,16.654541-32.9971313c4.5534668-2.1014404,9.6192627-2.1742554,14.2547607-0.204895
				c4.8881836,2.076416,8.7449951,6.2952271,10.5823975,11.5704956l0,0
				c2.3200684,6.6663818,2.5977783,15.1973877,0.8287354,25.3562622
				C1138.8660889,1027.5594482,1129.6156006,1036.3499756,1119.2700195,1036.3499756z M1122.6328125,988.9251099
				c-0.8424072,0-1.6802979,0.1843872-2.4703369,0.5487061c-7.6385498,3.5198364-10.980835,10.6734619-9.9334717,21.2626343
				c0.833252,8.4354248,4.2052002,13.7835693,8.7973633,13.9520264c4.1231689,0.1411133,9.1480713-3.6815796,10.4366455-11.0787354
				c1.4047852-8.0688477,1.2818604-14.8217163-0.3551025-19.5232544c-0.7695313-2.2106934-2.2358398-3.8704834-4.130127-4.6764526
				C1124.2174072,989.086731,1123.4228516,988.9251099,1122.6328125,988.9251099z"/>
		</g>
		<g>
			<path class="st0" d="M803.4901733,1176.9217529c-0.1934814,0-0.3847656-0.0045166-0.5782471-0.0113525
				c-8.0688477-0.2733154-17.2578735-6.8553467-18.8561401-24.5025635
				c-1.8919678-20.90979,8.8178711-29.56604,15.3704224-32.8649902c4.2119751-2.1196289,8.9180298-2.2813721,13.2644043-0.4553223
				c4.8449097,2.0354004,8.6311646,6.3657227,10.3933716,11.880127v0.0021973
				c2.1037598,6.5958252,2.354187,15.0494385,0.7445068,25.1286621
				C821.8864136,1168.2655029,813.3850098,1176.9217529,803.4901733,1176.9217529z M806.543335,1129.4899902
				c-0.6329346,0-1.2590332,0.1547852-1.8782959,0.4666748c-6.9395752,3.494873-9.9677124,10.6939697-8.9978027,21.399292
				c0.7513428,8.3148193,3.7498169,13.7720947,7.6408081,13.9041748c3.6063843,0.1525879,7.8867188-3.9615479,9.0091553-10.9990234
				c1.3000488-8.1462402,1.1838989-14.9742432-0.3392334-19.7485352c-0.7217407-2.2608643-2.1082764-3.9661865-3.8044434-4.678833
				C807.6293335,1129.6038818,807.0852051,1129.4899902,806.543335,1129.4899902z"/>
		</g>
		<path class="st0" d="M1202.3353271,1017.088623l-28.6507568-19.8192139l24.0152588-21.8682861
			c2.3791504-2.1674805,2.5522461-5.8535156,0.3847656-8.2350464c-2.1651611-2.3768921-5.8513184-2.5545044-8.2349854-0.3847656
			l-20.8398438,18.9788208l-1.4907227-15.2357788c-0.3140869-3.2034302-3.1601563-5.5211792-6.368042-5.234314
			c-3.2033691,0.314209-5.5484619,3.1647339-5.2342529,6.368103l5.2456055,53.6063843
			c0.2960205,3.012085,2.8300781,5.2614746,5.7944336,5.2614746c0.1889648,0,0.3824463-0.0090332,0.5737305-0.0272217
			c3.2033691-0.314209,5.5484619-3.1647949,5.2342529-6.3681641l-1.3985596-14.2923584l24.3391113,16.8355713
			c1.0109863,0.7011719,2.1652832,1.0358887,3.3104248,1.0358887c1.8487549,0,3.6678467-0.8765869,4.7971191-2.5135498
			C1205.645752,1022.5505981,1204.9831543,1018.9191284,1202.3353271,1017.088623z"/>
		<g>
			<path class="st0" d="M1260.6112061,1015.4470825l-3.4674072-50.2868042
				c-8.619873,1.1065063-14.6168213,3.7543945-17.4992676,7.7660522c-2.9051514,4.0435181-1.8077393,8.5264282-1.7962646,8.5697021
				c0.8811035,3.0963745-0.9130859,6.3203125-4.0072021,7.2036743c-3.1099854,0.8856812-6.3201904-0.9129639-7.2036133-4.0070801
				c-0.2845459-0.9995117-2.6046143-10.0109253,3.5380859-18.5670166
				c5.5894775-7.7819824,16.0603027-12.1692505,31.1324463-13.0458374
				c4.2050781-1.5800781,16.8457031-5.5507202,26.1622314-0.3825073c4.5534668,2.5272217,7.4631348,6.7984619,8.414917,12.3560181
				c0.7740479,4.5148315-0.3825684,8.3283691-2.6296387,11.5272217c2.0285645,0.5054321,3.9318848,1.2545166,5.6166992,2.3131714
				c4.1323242,2.5932617,6.6094971,6.6641235,7.164917,11.770874c0.5373535,4.9428101-0.9219971,9.519104-4.2210693,13.2348022
				c-9.6694336,10.8965454-33.0699463,11.4589233-35.7041016,11.4885254L1260.6112061,1015.4470825z M1270.5379639,989.9428101
				l0.928833,13.4692993c7.9163818-0.7763672,17.8658447-3.0007324,21.6361084-7.2537231
				c1.1269531-1.2750244,1.5300293-2.5408936,1.3455811-4.2325439c-0.2094727-1.9284058-0.9744873-2.6569824-1.769043-3.1555786
				c-3.5039063-2.2061768-11.1539307-1.6119385-18.145752-0.0955811
				C1273.0947266,989.1755371,1271.7423096,989.5967407,1270.5379639,989.9428101z M1268.6732178,962.9244995l1.0291748,14.9127808
				c0.4711914-0.1160889,0.9608154-0.2322388,1.4616699-0.3483276c7.2286377-2.631958,13.883667-6.6572876,13.2325439-10.4663086
				c-0.453125-2.6433105-1.6187744-3.597229-2.5819092-4.1323242
				C1278.8321533,961.2328491,1273.5205078,961.6016846,1268.6732178,962.9244995z"/>
		</g>
		<path class="st0" d="M473.083374,1247.1392822l-1.1565857-11.2790527
			c-0.2515869-2.4611816-1.4514465-4.6741943-3.3787231-6.2269287c-1.9261475-1.5527344-4.3452148-2.2471924-6.8041077-1.980835
			l-2.7153015,0.4858398l-4.1161194-28.7927246c-0.4553528-3.1875-3.4048767-5.4165039-6.594635-4.9451904
			c-3.1863098,0.4553223-5.4004517,3.4083252-4.9439697,6.5935059l4.2791748,29.9416504l-13.5125732,6.2839355
			l-7.2150574-36.1640625c-0.6306763-3.1556396-3.6986084-5.197876-6.8564758-4.5762939
			c-3.1567078,0.6306152-5.2046509,3.699707-4.5751343,6.8575439l7.2150574,36.1640625
			c0.7114868,3.5631104,2.9814148,6.5456543,6.2257996,8.1804199c1.6688538,0.8400879,3.4709167,1.2613525,5.2741089,1.2613525
			c1.7030029,0,3.4071655-0.3757324,5.0031738-1.1270752l14.6670227-6.9165039l6.7231445-1.2092285l0.8856506,8.6380615
			c0.307373,3.0007324,2.8391113,5.2342529,5.7909546,5.2342529c0.1980591,0,0.3995667-0.0090332,0.6010437-0.029541
			C471.0820923,1253.2022705,473.4123535,1250.3404541,473.083374,1247.1392822z"/>
		<path class="st0" d="M544.8684692,1170.0368652c-3.2193604,0-5.8284912,2.6091309-5.8284912,5.8284912v19.4462891
			l-14.7659302,2.7039795v-16.3217773c0-3.2193604-2.6091919-5.8284912-5.8284912-5.8284912
			c-3.2193604,0-5.8285522,2.6091309-5.8285522,5.8284912v46.6280518c0,3.2193604,2.6091919,5.8284912,5.8285522,5.8284912
			c3.2192993,0,5.8284912-2.6091309,5.8284912-5.8284912v-18.4560547l14.7659302-2.7038574v14.4775391
			c0,3.2193604,2.6091309,5.8286133,5.8284912,5.8286133s5.8284912-2.6092529,5.8284912-5.8286133v-45.7741699
			C550.6969604,1172.6459961,548.0878296,1170.0368652,544.8684692,1170.0368652z"/>
		<path class="st0" d="M597.5151367,1165.4240723c-0.8309937-3.1123047-4.0321655-4.9587402-7.1365356-4.1254883
			l-16.8417358,4.5040283c-0.0042725,0.0010986-0.008667,0.0023193-0.0129395,0.003418l-16.5612793,4.428833
			c-3.1089478,0.8310547-4.956543,4.0275879-4.1243896,7.135376c0.6967163,2.6069336,3.052002,4.3258057,5.6270142,4.3258057
			c0.4985962,0,1.005188-0.065918,1.5095215-0.2003174l9.9763184-2.6677246l2.9146729,34.7563477
			c0.2550049,3.041748,2.8026733,5.3413086,5.8012085,5.3413086c0.1639404,0,0.3278198-0.0068359,0.4940186-0.0205078
			c3.2079468-0.2686768,5.5894775-3.0872803,5.3208008-6.295166l-3.0895386-36.842041l11.9985352-3.2084961
			C596.4996948,1171.7283936,598.34729,1168.5318604,597.5151367,1165.4240723z"/>
		<g>
			<path class="st0" d="M707.5031128,1197.722168c-3.0713501,0-5.6429443-2.4019775-5.8136597-5.5074463l-2.52948-45.8083496
				c-0.3483887-5.8626709,3.5767822-11.0560303,9.3358154-12.3242188l15.586731-3.4355469
				c3.3081055-0.723999,6.781311-0.0136719,9.5305176,1.967041c2.7503052,1.9785156,4.5318604,5.0476074,4.8893433,8.4195557
				l4.2472534,43.4929199c0.3130493,3.2033691-2.0308228,6.053833-5.2342529,6.368042
				c-3.2033691,0.3120117-6.053894-2.0308838-6.368103-5.2342529l-4.2427368-43.4473877l-0.3130493-0.1821289l-15.5878296,3.4356689
				c-0.1252441,0.0272217-0.2140503,0.1456299-0.2060547,0.2731934l2.5306396,45.833374
				c0.1775513,3.2148438-2.2836304,5.9628906-5.4984131,6.1405029
				C707.7205811,1197.7199707,707.6112671,1197.722168,707.5031128,1197.722168z"/>
		</g>
		<g>
			<path class="st0" d="M834.0352173,1172.4388428c-3.2193604,0-5.8284912-2.6092529-5.8284912-5.8286133v-41.7807617
				c0-4.7994385,3.0849609-8.9681396,7.6749268-10.3706055l15.3271484-4.6810303
				c3.0690918-0.9403076,6.3362427,0.7900391,7.2765503,3.8704834c0.9403076,3.078125-0.7922974,6.3361816-3.8704834,7.2764893
				l-14.7511597,4.5057373v41.1796875C839.8637085,1169.8295898,837.2545776,1172.4388428,834.0352173,1172.4388428z"/>
		</g>
		<g>
			<g>
				<path class="st0" d="M1159.5664063,1113.9169922c-0.2254639,0-0.4508057-0.0046387-0.6762695-0.0114746
					c-8.5150146-0.3164063-18.2322998-6.9053955-19.9671631-24.4545898
					c-2.0809326-21.0714111,9.5418701-29.7186279,16.654541-32.9970703
					c4.5557861-2.0992432,9.6192627-2.1766357,14.2547607-0.2049561c4.8881836,2.076416,8.7449951,6.2952881,10.5823975,11.5704346
					l0,0c2.317749,6.6618652,2.5977783,15.1905518,0.8287354,25.3563232
					C1179.1624756,1105.1263428,1169.9119873,1113.9169922,1159.5664063,1113.9169922z M1162.9291992,1066.4920654
					c-0.8424072,0-1.6802979,0.1844482-2.4703369,0.5487061c-7.6385498,3.5197754-10.980835,10.6734619-9.9334717,21.2625732
					c0.8309326,8.4354248,4.2028809,13.78125,8.7950439,13.9520264c4.1437988,0.0592041,9.1503906-3.6791992,10.4389648-11.0787354
					c1.4047852-8.0733643,1.2818604-14.8239746-0.3551025-19.5231934c-0.7696533-2.2106934-2.2358398-3.8704834-4.130127-4.6765137
					C1164.5137939,1066.6536865,1163.7191162,1066.4920654,1162.9291992,1066.4920654z"/>
			</g>
			<g>
				<path class="st0" d="M1322.1748047,1075.2575684c-1.835083-0.102417-4.2415771-0.4758301-5.2843018-1.6824951
					c-1.7576904-2.0286865-1.2613525-7.6977539-0.8218994-12.6998291
					c0.7832031-8.9112549,1.8555908-21.1191406-8.8110352-27.2141113
					c-6.9624023-3.9797363-12.7772217-3.1691895-16.4268799-1.7849121
					c-10.9239502,4.1300049-15.9259033,17.9863281-16.4609375,19.5527344
					c-1.038208,3.0463867,0.5874023,6.3590088,3.633667,7.3995361c3.0509033,1.0335693,6.3590088-0.5874023,7.3994141-3.6337891
					c1.1247559-3.2989502,4.9406738-10.6711426,9.5510254-12.4151611c1.2294922-0.4644775,3.2490234-0.8674316,6.5206299,1.0041504
					c2.9467773,1.6829834,3.567749,5.1402588,3.3742676,10.3956299
					c-7.1160889,1.9591064-20.5585938,6.6791992-26.0598145,15.4887695
					c-2.4771729,3.9661865-3.1738281,8.414917-2.0195313,12.8706055c1.7143555,6.6116943,6.0402832,8.7860107,8.4649658,9.4940186
					c1.1497803,0.3347168,2.3427734,0.4871826,3.5631104,0.4871826c7.2971191,0,15.5583496-5.4296875,20.9445801-9.7126465
					c2.9088135,2.430542,6.8513184,3.8148193,11.7861328,4.0891113c0.109375,0.0068359,0.2186279,0.0091553,0.3278809,0.0091553
					c3.0714111,0,5.6418457-2.4019775,5.8148193-5.505249
					C1327.8508301,1078.1854248,1325.3896484,1075.4351807,1322.1748047,1075.2575684z M1288.5926514,1080.9016113
					c-0.0773926-0.0750732-0.3233643-0.4530029-0.5395508-1.286377c-0.3552246-1.3728027-0.1707764-2.4998779,0.6192627-3.7657471
					c2.3905029-3.8377686,9.1019287-7.1029053,15.333374-9.2250977c-0.0483398,1.9039307,0.0108643,3.7785645,0.2595215,5.5877686
					C1297.5272217,1077.9100342,1290.4359131,1081.559082,1288.5926514,1080.9016113z"/>
				<g>
					<path class="st0" d="M1253.1707764,1100.15625c-2.4361572,0-4.9473877-0.416626-7.4199219-1.454834
						c-7.7478027-3.25354-12.5472412-11.4863281-14.2662354-24.4707031
						c-1.6278076-12.2990723,0.7399902-21.2648926,7.0374756-26.6425781
						c9.1639404-7.829834,22.2530518-4.2484131,23.7125244-3.8135986c3.0872803,0.9152832,4.8448486,4.159668,3.9296875,7.2446289
						c-0.9129639,3.0804443-4.1551514,4.8404541-7.2219238,3.9365234c-2.3291016-0.6624756-9.168457-1.6848145-12.8751221,1.5185547
						c-3.838623,3.3104248-3.7634277,10.6507568-3.0257568,16.2265625
						c1.1019287,8.3283691,3.6610107,13.7424316,7.2036133,15.2451172
						c4.7402344,2.0150146,12.0487061-2.1514893,14.2320557-3.7680664c2.5887451-1.9078369,6.2315674-1.3728027,8.1485596,1.1976318
						c1.9193115,2.5749512,1.4024658,6.2087402-1.1657715,8.137085
						C1270.3580322,1094.3413086,1262.284668,1100.15625,1253.1707764,1100.15625z"/>
				</g>
				<path class="st0" d="M1229.5220947,1098.2459717l-28.6507568-19.8192139l24.0152588-21.8704834
					c2.3792725-2.1674805,2.5522461-5.8535156,0.3847656-8.2351074c-2.1651611-2.3746338-5.8535156-2.5544434-8.2349854-0.3847656
					l-20.8394775,18.9802246l-1.4909668-15.2371826c-0.314209-3.2033691-3.1647949-5.5257568-6.3681641-5.2342529
					c-3.2033691,0.314209-5.5484619,3.1646729-5.2342529,6.368042l5.2456055,53.6086426
					c0.2960205,3.012085,2.8300781,5.2615967,5.7944336,5.2615967c0.1889648,0,0.3824463-0.0091553,0.5737305-0.0273438
					c3.2033691-0.314209,5.5484619-3.1646729,5.2342529-6.368042l-1.3985596-14.2923584l24.3392334,16.8354492
					c1.0108643,0.7012939,2.1651611,1.0358887,3.3104248,1.0358887c1.8486328,0,3.6678467-0.8764648,4.7971191-2.5135498
					C1232.8325195,1103.7080078,1232.1699219,1100.0765381,1229.5220947,1098.2459717z"/>
			</g>
			<g>
				<path class="st0" d="M1111.0235596,1120.7677002c-3.2380371,0.3067627-6.1009521-2.0950928-6.3615723-5.3371582
					l-1.9804688-24.6363525c-0.0091553-0.0910645-0.0159912-0.1821289-0.0228271-0.2709961l-1.1838379-14.7305908
					c-0.380249-4.737915,2.2630615-9.2663574,6.572998-11.2700195l0.4666748-0.1911621l17.9173584-6.5050049
					c2.8657227-1.0404053,6.2258301,0.072876,7.5471191,2.8203125c1.5196533,3.1600342-0.0427246,6.8570557-3.2546387,8.0218506
					l-17.6130371,6.3955078l0.6739502,8.3739014c4.9200439-0.4281006,11.5704346-0.1616211,16.7774658,3.1099854
					c3.9136963,2.456665,6.4705811,6.2565918,7.3903809,10.9876709c0.8764648,4.5125732-0.0751953,8.7905273-2.7526855,12.3719482
					C1128.5045166,1118.8643799,1112.7926025,1120.5992432,1111.0235596,1120.7677002L1111.0235596,1120.7677002z
					 M1114.71875,1095.0631104l1.0473633,13.0070801c3.9500732-1.0222168,8.3010254-2.7297363,10.104248-5.1500244
					c0.7058105-0.9493408,0.8924561-1.864624,0.6397705-3.1578369c-0.3051758-1.5709229-0.9676514-2.6022949-2.1469727-3.3422852
					C1122.0067139,1094.9355469,1118.074707,1094.7717285,1114.71875,1095.0631104z"/>
			</g>
		</g>
	</g>
</g>
</svg>
